<?xml version="1.0" encoding="UTF-8" standalone="no"?>
<!-- Created with Inkscape (http://www.inkscape.org/) -->
<svg xmlns:dc="http://purl.org/dc/elements/1.1/" xmlns:cc="http://creativecommons.org/ns#" xmlns:rdf="http://www.w3.org/1999/02/22-rdf-syntax-ns#" xmlns:svg="http://www.w3.org/2000/svg" xmlns="http://www.w3.org/2000/svg" xmlns:sodipodi="http://sodipodi.sourceforge.net/DTD/sodipodi-0.dtd" xmlns:inkscape="http://www.inkscape.org/namespaces/inkscape" width="414.00674" height="271.05518" id="svg3969" version="1.1" inkscape:version="0.48.2 r9819" sodipodi:docname="Icon_set_assert.svg">
  <defs id="defs3971"/>
  <sodipodi:namedview id="base" pagecolor="#ffffff" bordercolor="#666666" borderopacity="1.0" inkscape:pageopacity="0.0" inkscape:pageshadow="2" inkscape:zoom="0.49497475" inkscape:cx="18.554272" inkscape:cy="-233.37749" inkscape:document-units="px" inkscape:current-layer="layer1" showgrid="false" fit-margin-top="0" fit-margin-left="0" fit-margin-right="0" fit-margin-bottom="0" inkscape:window-width="1280" inkscape:window-height="776" inkscape:window-x="0" inkscape:window-y="0" inkscape:window-maximized="1"/>
  <g inkscape:label="Livello 1" inkscape:groupmode="layer" id="layer1" transform="translate(-40.267981,-27.929509)">
    <g id="g4226" transform="translate(40.279118,27.93567)">
      <g id="layer1-3" transform="translate(0,-924.36218)">
        <path inkscape:connector-curvature="0" style="fill:none;stroke:#000000;stroke-width:1.99465585;stroke-linecap:round;stroke-linejoin:round;stroke-miterlimit:4;stroke-opacity:1;stroke-dasharray:none" id="path3160" transform="matrix(0.98823045,0,0,0.98627746,0.23592187,924.38684)" d="m 128.28937,64.865463 a 63.765881,63.892147 0 1 1 -127.53175968,0 63.765881,63.892147 0 1 1 127.53175968,0 z"/>
      </g>
      <path inkscape:connector-curvature="0" id="path3849" d="m 59.227272,26.500004 0,74.999996 9.545455,0 0,-74.999996 -9.545455,0 z" style="font-size:medium;font-style:normal;font-variant:normal;font-weight:normal;font-stretch:normal;text-indent:0;text-align:start;text-decoration:none;line-height:normal;letter-spacing:normal;word-spacing:normal;text-transform:none;direction:ltr;block-progression:tb;writing-mode:lr-tb;text-anchor:start;baseline-shift:baseline;color:#000000;fill:#4d4d4d;fill-opacity:1;stroke:none;stroke-width:7;marker:none;visibility:visible;display:inline;overflow:visible;enable-background:accumulate;font-family:Sans;-inkscape-font-specification:Sans"/>
    </g>
    <g id="g4405" transform="translate(183.27912,27.93567)">
      <g id="layer1-4" transform="translate(0,-924.36218)">
        <path inkscape:connector-curvature="0" style="fill:none;stroke:#000000;stroke-width:1.99465585;stroke-linecap:round;stroke-linejoin:round;stroke-miterlimit:4;stroke-opacity:1;stroke-dasharray:none" id="path3160-3" transform="matrix(0.98823045,0,0,0.98627746,0.23592187,924.38684)" d="m 128.28937,64.865463 a 63.765881,63.892147 0 1 1 -127.53175968,0 63.765881,63.892147 0 1 1 127.53175968,0 z"/>
      </g>
      <path id="path3827" d="m -40,70.5 c 0,26.233526 -17.90861,47.5 -40,47.5 -22.09139,0 -40,-21.266474 -40,-47.5 0,-26.233526 17.90861,-47.5 40,-47.5 22.09139,0 40,21.266474 40,47.5 z" style="color:#000000;fill:none;stroke:#4d4d4d;stroke-width:8.97420311;stroke-linecap:round;stroke-linejoin:round;stroke-miterlimit:4;stroke-opacity:1;stroke-dashoffset:0;marker:none;visibility:visible;display:inline;overflow:visible;enable-background:accumulate" transform="matrix(0.85000004,0,0,0.71578953,132,13.536842)" inkscape:connector-curvature="0"/>
    </g>
    <g id="g4584" transform="translate(183.27912,170.95971)">
      <g id="layer1-8" transform="translate(0,-924.36218)">
        <path inkscape:connector-curvature="0" style="fill:none;stroke:#000000;stroke-width:1.99465585;stroke-linecap:round;stroke-linejoin:round;stroke-miterlimit:4;stroke-opacity:1;stroke-dasharray:none" id="path3160-6" transform="matrix(0.98823045,0,0,0.98627746,0.23592187,924.38684)" d="m 128.28937,64.865463 a 63.765881,63.892147 0 1 1 -127.53175968,0 63.765881,63.892147 0 1 1 127.53175968,0 z"/>
      </g>
      <path inkscape:connector-curvature="0" id="path3027" d="M 35.130833,28.587923 28.58792,35.130836 57.457089,64.000004 28.58792,92.869173 35.130833,99.412086 64.000001,70.542917 92.86917,99.412086 99.41208,92.869173 70.542914,64.000004 99.41208,35.130836 92.86917,28.587923 64.000001,57.457092 35.130833,28.587923 z" style="font-size:medium;font-style:normal;font-variant:normal;font-weight:normal;font-stretch:normal;text-indent:0;text-align:start;text-decoration:none;line-height:normal;letter-spacing:normal;word-spacing:normal;text-transform:none;direction:ltr;block-progression:tb;writing-mode:lr-tb;text-anchor:start;baseline-shift:baseline;color:#000000;fill:#4d4d4d;fill-opacity:1;stroke:none;stroke-width:5;marker:none;visibility:visible;display:inline;overflow:visible;enable-background:accumulate;font-family:Sans;-inkscape-font-specification:Sans"/>
    </g>
    <g id="g4769" transform="translate(326.27912,170.95971)">
      <g id="layer1-0" transform="translate(0,-924.36218)">
        <path inkscape:connector-curvature="0" style="fill:none;stroke:#000000;stroke-width:1.99465585;stroke-linecap:round;stroke-linejoin:round;stroke-miterlimit:4;stroke-opacity:1;stroke-dasharray:none" id="path3160-68" transform="matrix(0.98823045,0,0,0.98627746,0.23592187,924.38684)" d="m 128.28937,64.865463 a 63.765881,63.892147 0 1 1 -127.53175968,0 63.765881,63.892147 0 1 1 127.53175968,0 z"/>
      </g>
      <g transform="translate(1.0714874,4)" id="g3942">
        <path id="path3936" d="m -105.46677,59.925991 c 0,5.61296 -4.72191,10.163162 -10.54668,10.163162 -5.82477,0 -10.54668,-4.550202 -10.54668,-10.163162 0,-5.612959 4.72191,-10.163162 10.54668,-10.163162 5.82477,0 10.54668,4.550203 10.54668,10.163162 z" style="color:#000000;fill:#4d4d4d;fill-opacity:1;fill-rule:nonzero;stroke:none;stroke-width:8;marker:none;visibility:visible;display:inline;overflow:visible;enable-background:accumulate" transform="matrix(0.9481659,0,0,0.98394572,146.92851,19.150461)" inkscape:connector-curvature="0"/>
        <path id="path3938" d="m -105.46677,59.925991 c 0,5.61296 -4.72191,10.163162 -10.54668,10.163162 -5.82477,0 -10.54668,-4.550202 -10.54668,-10.163162 0,-5.612959 4.72191,-10.163162 10.54668,-10.163162 5.82477,0 10.54668,4.550203 10.54668,10.163162 z" style="color:#000000;fill:#4d4d4d;fill-opacity:1;fill-rule:nonzero;stroke:none;stroke-width:8;marker:none;visibility:visible;display:inline;overflow:visible;enable-background:accumulate" transform="matrix(0.9481659,0,0,0.98394572,172.92851,19.150461)" inkscape:connector-curvature="0"/>
        <path id="path3940" d="m -105.46677,59.925991 c 0,5.61296 -4.72191,10.163162 -10.54668,10.163162 -5.82477,0 -10.54668,-4.550202 -10.54668,-10.163162 0,-5.612959 4.72191,-10.163162 10.54668,-10.163162 5.82477,0 10.54668,4.550203 10.54668,10.163162 z" style="color:#000000;fill:#4d4d4d;fill-opacity:1;fill-rule:nonzero;stroke:none;stroke-width:8;marker:none;visibility:visible;display:inline;overflow:visible;enable-background:accumulate" transform="matrix(0.9481659,0,0,0.98394572,198.92851,19.150461)" inkscape:connector-curvature="0"/>
      </g>
    </g>
    <g id="g4970" transform="translate(40.279118,170.95971)">
      <g id="layer1-00" transform="translate(0,-924.36218)">
        <path inkscape:connector-curvature="0" style="fill:none;stroke:#000000;stroke-width:1.99465585;stroke-linecap:round;stroke-linejoin:round;stroke-miterlimit:4;stroke-opacity:1;stroke-dasharray:none" id="path3160-69" transform="matrix(0.98823045,0,0,0.98627746,0.23592187,924.38684)" d="m 128.28937,64.865463 a 63.765881,63.892147 0 1 1 -127.53175968,0 63.765881,63.892147 0 1 1 127.53175968,0 z"/>
      </g>
      <path sodipodi:nodetypes="ccccc" inkscape:connector-curvature="0" id="path3915" d="M 24.161476,58.967203 50.815806,95.976453 107.76787,29.05299 46.017815,72.541064 z" style="fill:#4d4d4d;stroke:none"/>
    </g>
    <g id="g5155" transform="translate(326.27912,27.93567)">
      <g id="layer1-6" transform="translate(0,-924.36218)">
        <path inkscape:connector-curvature="0" style="fill:none;stroke:#000000;stroke-width:1.99465585;stroke-linecap:round;stroke-linejoin:round;stroke-miterlimit:4;stroke-opacity:1;stroke-dasharray:none" id="path3160-4" transform="matrix(0.98823045,0,0,0.98627746,0.23592187,924.38684)" d="m 128.28937,64.865463 a 63.765881,63.892147 0 1 1 -127.53175968,0 63.765881,63.892147 0 1 1 127.53175968,0 z"/>
      </g>
      <g transform="translate(-0.99999949,0.7984203)" id="g3886">
        <g id="g3890">
          <path inkscape:connector-curvature="0" id="path3874" d="m 44.570578,26.113651 a 4.0146032,3.7204363 0 0 0 -1.756213,0.597868 c -6.721341,3.85309 -12.283017,9.362948 -16.12849,15.976347 -12.077402,20.770582 -4.977392,47.255737 16.12849,59.354954 21.105876,12.09922 48.42235,4.79423 60.499755,-15.976348 12.07741,-20.770582 4.97739,-47.255737 -16.128489,-59.354953 a 4.0146032,3.7204363 0 1 0 -4.229248,6.310823 C 100.24977,42.935999 106.31001,65.188867 96.217585,82.545697 86.125164,99.902528 64.336998,105.64565 47.043613,95.731997 29.750229,85.81834 23.689985,63.565471 33.782411,46.208641 36.983341,40.703719 41.560224,36.165762 47.043613,33.022342 a 4.0146032,3.7204363 0 0 0 -2.473035,-6.908691 z" style="font-size:medium;font-style:normal;font-variant:normal;font-weight:normal;font-stretch:normal;text-indent:0;text-align:start;text-decoration:none;line-height:normal;letter-spacing:normal;word-spacing:normal;text-transform:none;direction:ltr;block-progression:tb;writing-mode:lr-tb;text-anchor:start;baseline-shift:baseline;color:#000000;fill:#4d4d4d;fill-opacity:1;stroke:none;stroke-width:7;marker:none;visibility:visible;display:inline;overflow:visible;enable-background:accumulate;font-family:Sans;-inkscape-font-specification:Sans"/>
          <path inkscape:connector-curvature="0" id="path3876" d="m 64.949406,18.508337 a 4.0641833,4.092562 0 0 0 -4.021972,4.151945 l 0,32.324031 a 4.072563,4.1010001 0 0 0 8.145126,0 l 0,-32.324031 a 4.0641833,4.092562 0 0 0 -4.123154,-4.151945 z" style="font-size:medium;font-style:normal;font-variant:normal;font-weight:normal;font-stretch:normal;text-indent:0;text-align:start;text-decoration:none;line-height:normal;letter-spacing:normal;word-spacing:normal;text-transform:none;direction:ltr;block-progression:tb;writing-mode:lr-tb;text-anchor:start;baseline-shift:baseline;color:#000000;fill:#4d4d4d;fill-opacity:1;stroke:none;stroke-width:10.04079151;marker:none;visibility:visible;display:inline;overflow:visible;enable-background:accumulate;font-family:Sans;-inkscape-font-specification:Sans"/>
        </g>
      </g>
    </g>
  </g>
  <metadata>
    <rdf:RDF>
      <cc:Work>
        <dc:format>image/svg+xml</dc:format>
        <dc:type rdf:resource="http://purl.org/dc/dcmitype/StillImage"/>
        <cc:license rdf:resource="http://creativecommons.org/licenses/publicdomain/"/>
        <dc:publisher>
          <cc:Agent rdf:about="http://openclipart.org/">
            <dc:title>Open Clip Art Library</dc:title>
          </cc:Agent>
        </dc:publisher>
        <dc:title>Icon Set Assert</dc:title>
        <dc:date>2012-09-07T17:00:42</dc:date>
        <dc:description>Check others icons on my "Minimal Icon Set" collection\n\nIcons set useful for gui design or user interface applications design and mockups. This set is about assertions (OK, NO, Cancel,Fault, Ellipsis, Power, On, Off)</dc:description>
        <dc:source>http://openclipart.org/detail/172202/icon-set-assert-by-mi_brami-172202</dc:source>
        <dc:creator>
          <cc:Agent>
            <dc:title>mi_brami</dc:title>
          </cc:Agent>
        </dc:creator>
        <dc:subject>
          <rdf:Bag>
            <rdf:li>Cancel</rdf:li>
            <rdf:li>Cross</rdf:li>
            <rdf:li>Ellipsis</rdf:li>
            <rdf:li>Fault</rdf:li>
            <rdf:li>Ok</rdf:li>
            <rdf:li>b&amp;w</rdf:li>
            <rdf:li>black</rdf:li>
            <rdf:li>clip art</rdf:li>
            <rdf:li>clipart</rdf:li>
            <rdf:li>dots</rdf:li>
            <rdf:li>gray</rdf:li>
            <rdf:li>icons</rdf:li>
            <rdf:li>off</rdf:li>
            <rdf:li>on</rdf:li>
            <rdf:li>operate</rdf:li>
            <rdf:li>power</rdf:li>
            <rdf:li>transparent</rdf:li>
            <rdf:li>white</rdf:li>
          </rdf:Bag>
        </dc:subject>
      </cc:Work>
      <cc:License rdf:about="http://creativecommons.org/licenses/publicdomain/">
        <cc:permits rdf:resource="http://creativecommons.org/ns#Reproduction"/>
        <cc:permits rdf:resource="http://creativecommons.org/ns#Distribution"/>
        <cc:permits rdf:resource="http://creativecommons.org/ns#DerivativeWorks"/>
      </cc:License>
    </rdf:RDF>
  </metadata>
</svg>
