<?xml version="1.0" ?><!DOCTYPE svg  PUBLIC '-//W3C//DTD SVG 1.1//EN'  'http://www.w3.org/Graphics/SVG/1.1/DTD/svg11.dtd'><svg height="512px" style="shape-rendering:geometricPrecision; text-rendering:geometricPrecision; image-rendering:optimizeQuality; fill-rule:evenodd; clip-rule:evenodd" viewBox="0 0 511.995 512" width="512px" xml:space="preserve" xmlns="http://www.w3.org/2000/svg" xmlns:xlink="http://www.w3.org/1999/xlink"><defs><style type="text/css">
   <![CDATA[
    .fil0 {fill:#40BFF5}
   ]]>
  </style></defs><g id="Layer_x0020_1"><path class="fil0" d="M-0 0l511.995 0 0 512 -511.995 0 0 -512zm424.112 152.259c-12.3642,5.47645 -25.6571,9.1499 -39.5959,10.8258 14.232,-8.49355 25.1538,-21.9707 30.306,-37.9694 -13.3085,7.85537 -28.0697,13.5549 -43.7571,16.6525 -12.5795,-13.3552 -30.4876,-21.6775 -50.305,-21.6775 -38.0602,-0.00259424 -68.9187,30.7236 -68.9187,68.6333 0.00259424,5.35193 0.601865,10.6208 1.78484,15.6381 -57.2757,-2.8848 -108.068,-30.197 -142.058,-71.6919 -5.92785,10.1176 -9.3289,21.9032 -9.3289,34.4775 0,23.8281 12.1696,44.8104 30.664,57.1227 -11.2979,-0.355411 -21.9291,-3.45034 -31.2165,-8.59992 -0.0155655,0.287961 -0.0181597,0.568139 -0.0181597,0.879449 0.00259424,33.2582 23.7711,60.9855 55.2911,67.2843 -5.77998,1.56952 -11.8687,2.39449 -18.1597,2.39449 -4.43097,0 -8.76076,-0.409891 -12.966,-1.22189 8.77114,27.2603 34.2233,47.1141 64.3788,47.6407 -23.5869,18.4191 -53.3065,29.4006 -85.5867,29.4006 -5.56984,-0.00259424 -11.0489,-0.326875 -16.4423,-0.980624 30.4979,19.475 66.724,30.8404 105.645,30.8404 126.77,-0.00259424 196.083,-104.558 196.083,-195.235 0.00259424,-2.96782 -0.0674503,-5.94601 -0.184191,-8.88788 13.4667,-9.67653 25.1356,-21.7605 34.3841,-35.5256z"/></g></svg>