<?xml version="1.0" encoding="utf-8"?>
<!-- Generator: Adobe Illustrator 18.1.1, SVG Export Plug-In . SVG Version: 6.00 Build 0)  -->
<svg version="1.1" id="Layer_1" xmlns="http://www.w3.org/2000/svg" xmlns:xlink="http://www.w3.org/1999/xlink" x="0px" y="0px"
	 viewBox="0 0 399 106" enable-background="new 0 0 399 106" xml:space="preserve">
<g>
	<circle fill="#FFEB65" cx="24.7" cy="30.7" r="21"/>
	<rect x="21" y="57" fill="#FFEB65" width="1" height="43"/>
	
		<rect x="19.2" y="75.4" transform="matrix(-0.3872 -0.922 0.922 -0.3872 -13.9195 142.5145)" fill="#FFEB65" width="42.5" height="0.9"/>
	
		<rect x="35.4" y="65.8" transform="matrix(-0.714 -0.7001 0.7001 -0.714 50.7634 153.2571)" fill="#FFEB65" width="42.5" height="0.9"/>
	
		<rect x="46.7" y="50.6" transform="matrix(-0.9294 -0.369 0.369 -0.9294 112.2887 123.6458)" fill="#FFEB65" width="42.5" height="0.9"/>
	
		<rect x="72" y="11.5" transform="matrix(-1.952755e-002 -0.9998 0.9998 -1.952755e-002 41.195 105.8456)" fill="#FFEB65" width="0.9" height="42.5"/>
	
		<rect x="69.1" y="-7.2" transform="matrix(0.4053 0.9142 -0.9142 0.4053 54.2026 -55.2428)" fill="#FFEB65" width="0.9" height="42.5"/>
	<polygon fill="#FFEB65" points="45.4,13.7 58.4,0 57.1,0 44.7,13.1 	"/>
	<polygon fill="#FFEB65" points="37.2,7 39.9,0 38.9,0 36.3,6.7 	"/>
	<polygon fill="#FFEB65" points="27.1,4 26.9,0 26,0 26.2,4.1 	"/>
	<polygon fill="#FFEB65" points="16.6,5.2 14.1,0 13.1,0 15.7,5.6 	"/>
	<polygon fill="#FFEB65" points="7.6,10.3 0,3.2 0,4.5 7.1,11 	"/>
	<polygon fill="#FFEB65" points="-0.5,39.7 -0.5,40.2 -0.3,40.1 	"/>
	<polygon fill="#FFEB65" points="4.9,48.4 0,54.3 0,55.7 5.7,49 	"/>
	
		<rect x="6.4" y="53.9" transform="matrix(-0.9498 -0.3127 0.3127 -0.9498 -10.1588 148.5702)" fill="#FFEB65" width="0.9" height="42.5"/>
</g>
<path fill="#6FCBDC" d="M399,83c-4.7-2.2-5.6-7-12.3-7c-8.2,0-8.2,8-16.3,8c-8.2,0-8.2-8-16.3-8c-8.2,0-8.2,8-16.3,8
	c-8.2,0-8.2-8-16.3-8c-8.2,0-8.2,8-16.3,8c-8.2,0-8.2-8-16.3-8c-8.2,0-8.2,8-16.3,8c-8.2,0-8.2-8-16.3-8c-8.2,0-8.2,8-16.3,8
	c-8.2,0-8.2-8-16.3-8c-8.2,0-8.2,8-16.3,8c-8.2,0-8.2-8-16.3-8c-8.2,0-8.2,8-16.3,8c-8.2,0-8.2-8-16.3-8c-8.2,0-8.2,8-16.3,8
	c-8.2,0-8.2-8-16.3-8c-8.2,0-8.2,8-16.3,8c-8.2,0-8.2-8-16.3-8s-8.2,8-16.3,8c-8.2,0-8.2-8-16.3-8c-8.2,0-8.2,8-16.3,8
	c-8.2,0-8.2-8-16.3-8c-8.2,0-8.2,8-16.3,8C4.7,84,2.9,79-1,76.9V106h400V83z"/>
<g>
	<path fill="#0070B9" d="M280.7,101.2c-0.6,1.3-2.4-2.1-3.7-1.5c-1.7,0.8-2.8,1.8-5.7,1.8c-5.1,0-5.2-0.9-9.2-3.4
		c1.8-2.5,5-3.7,7.3-3.6c0.2,0,0.6-1,0.8-0.9c0.6,0.1,0.6,1,1.2,1.3c1.9,0.9,4.1,1.7,5.4,1.6c1.2-0.1,2.5-3.3,2.8-2.2
		C279.8,95.2,279,99.7,280.7,101.2z"/>
	<circle fill="#FFFFFF" cx="265.5" cy="96.9" r="1"/>
	<circle cx="265.5" cy="96.9" r="0.5"/>
	<path fill="#FFFFFF" d="M268.6,98.8c0,0,0.8-1.6,0.1-2.6c0,0,0.6,2.7-1.8,3.1c0,0,3.6,1.8,9,0.1C275.9,99.4,269.2,100.3,268.6,98.8
		z"/>
</g>
</svg>
