<?xml version="1.0" encoding="utf-8"?>
<!-- Generator: Adobe Illustrator 18.1.1, SVG Export Plug-In . SVG Version: 6.00 Build 0)  -->
<svg version="1.1" id="Layer_1" xmlns="http://www.w3.org/2000/svg" xmlns:xlink="http://www.w3.org/1999/xlink" x="0px" y="0px"
	 viewBox="0 0 486.7 140" enable-background="new 0 0 486.7 140" xml:space="preserve">
<line fill="none" stroke="#000000" stroke-width="0.72" stroke-miterlimit="10" x1="11.4" y1="42.4" x2="11.4" y2="124.4"/>
<path d="M26.9,64.5c-0.1-0.5-0.2-1-0.2-1.6C26.2,63,25.8,63,25.4,63c-0.4,0-0.9,0-1.3,0c-0.4,0-0.8-0.1-1.1-0.1
	c-0.3-0.1-0.6-0.1-0.9-0.3c-1.1-0.5-1.9-1-2.6-1.6c-0.6-0.6-1.2-1.2-1.5-1.8c-0.4-0.6-0.6-1.2-0.7-1.9c-0.1-0.6-0.2-1.3-0.3-2
	c-0.1-0.7,0-1.4,0.2-2.1c0.2-0.7,0.4-1.4,0.8-2c0.3-0.6,0.7-1.2,1.1-1.8c0.4-0.5,0.8-1,1.3-1.4c0.5-0.5,1-0.9,1.5-1.4
	c0.5-0.5,1.1-0.9,1.8-1.4c0-0.2,0-0.3-0.1-0.5c0-0.1,0-0.3-0.1-0.4c0-0.1-0.1-0.3-0.1-0.5c0-0.2-0.1-0.4-0.1-0.7c0-0.1,0-0.3,0-0.6
	c0-0.3,0-0.6-0.1-1.1c0-0.4,0-0.9,0-1.4c0-0.5,0.1-1.1,0.2-1.7c0.1-0.3,0.2-0.8,0.4-1.3c0.2-0.5,0.5-1,0.8-1.5s0.6-0.9,1-1.3
	c0.3-0.4,0.7-0.5,1-0.5c0.2,0,0.3,0.1,0.5,0.3c0.2,0.2,0.4,0.4,0.5,0.7c0.2,0.3,0.3,0.7,0.5,1c0.2,0.4,0.3,0.8,0.4,1.2
	c0.1,0.4,0.2,0.8,0.3,1.2c0.1,0.4,0.1,0.7,0.1,1c0,0.7,0,1.3-0.1,1.9c-0.1,0.5-0.2,1-0.3,1.5c-0.1,0.4-0.3,0.8-0.5,1.2
	c-0.2,0.4-0.4,0.7-0.6,1.1c-0.2,0.4-0.4,0.7-0.7,1c-0.2,0.3-0.5,0.6-0.7,0.9c-0.2,0.3-0.5,0.6-0.8,0.7c-0.3,0.2-0.5,0.4-0.8,0.6
	c0.1,0.7,0.2,1.3,0.3,1.9c0,0.2,0.1,0.5,0.1,0.7c0,0.2,0.1,0.4,0.1,0.6c0,0.2,0.1,0.4,0.1,0.5c0,0.1,0,0.2,0,0.2c0.3,0,0.7,0,1,0
	c0.3,0,0.7,0.1,1,0.2c0.3,0.1,0.6,0.2,0.9,0.3c0.3,0.1,0.5,0.2,0.6,0.3c0.7,0.5,1.3,1.2,1.6,1.9c0.3,0.7,0.5,1.4,0.5,2.2
	c0,0.6,0,1.2-0.1,1.7c-0.1,0.6-0.4,1.1-0.7,1.7c-0.3,0.5-0.7,1-1.3,1.4c-0.5,0.4-1.1,0.8-1.8,1.1c0.1,0.6,0.2,1.1,0.2,1.6
	c0.1,0.4,0.1,0.8,0.2,1.2c0.1,0.4,0.1,0.7,0.1,0.8c0.1,0.8,0.2,1.5,0.1,2c0,0.5-0.1,1-0.3,1.3c-0.2,0.3-0.3,0.5-0.5,0.8
	c-0.2,0.3-0.4,0.5-0.7,0.7c-0.3,0.2-0.6,0.4-1,0.5c-0.4,0.1-0.8,0.2-1.2,0.2c-0.4,0-0.8,0-1.3-0.1c-0.5-0.1-1-0.2-1.4-0.5
	s-0.8-0.5-1.2-0.9c-0.3-0.4-0.5-0.9-0.6-1.4c0-0.3,0-0.7,0.1-1c0.1-0.3,0.2-0.6,0.4-0.9c0.2-0.3,0.4-0.5,0.7-0.7
	c0.3-0.2,0.6-0.3,1-0.3c0.2,0,0.5,0,0.7,0.1c0.3,0.1,0.5,0.2,0.7,0.4c0.2,0.2,0.4,0.4,0.5,0.6c0.1,0.2,0.2,0.5,0.2,0.8
	c0,0.5-0.1,1-0.5,1.5c-0.4,0.5-1,0.8-1.8,1.1c0.1,0.2,0.4,0.4,0.8,0.5c0.4,0.2,0.9,0.3,1.4,0.3c0.6,0,1.2-0.2,1.7-0.5
	c0.6-0.4,1-0.8,1.3-1.3c0.2-0.4,0.3-0.8,0.3-1.4c0-0.6,0-1.1-0.1-1.7c0-0.1-0.1-0.3-0.1-0.7C27,65.3,26.9,64.9,26.9,64.5L26.9,64.5z
	 M25.3,54.9c-0.6,0-1,0.1-1.4,0.3c-0.4,0.2-0.6,0.4-0.9,0.7c-0.2,0.3-0.4,0.6-0.4,0.9c-0.1,0.3-0.1,0.6-0.1,0.8
	c0,0.2,0.1,0.5,0.2,0.8c0.1,0.3,0.2,0.5,0.4,0.7c0.2,0.2,0.3,0.4,0.5,0.6c0.2,0.2,0.4,0.3,0.6,0.4c0,0-0.1,0.1-0.1,0.1
	c0,0,0,0-0.1,0.1c0,0,0,0.1-0.1,0.1c-0.4-0.2-0.8-0.4-1.1-0.7c-0.3-0.3-0.5-0.5-0.6-0.6c-0.2-0.2-0.3-0.4-0.4-0.6
	c-0.1-0.2-0.2-0.3-0.3-0.5c-0.1-0.2-0.1-0.4-0.2-0.6c0-0.2-0.1-0.5-0.1-0.8c0-0.3,0-0.6,0.1-0.9c0.1-0.3,0.2-0.6,0.3-1
	c0.2-0.3,0.4-0.6,0.6-1c0.3-0.3,0.6-0.6,0.9-0.9c0.2-0.1,0.3-0.2,0.5-0.3c0.1-0.1,0.3-0.2,0.4-0.2c0.1-0.1,0.2-0.1,0.4-0.1
	c0.1,0,0.3-0.1,0.4-0.1l-0.6-3.7c-0.2,0.1-0.4,0.3-0.8,0.6c-0.4,0.3-0.8,0.6-1.2,1c-0.4,0.4-0.9,0.8-1.3,1.3
	c-0.4,0.5-0.8,0.9-1.1,1.3c-0.5,0.8-0.9,1.5-1.1,2.2c-0.3,0.7-0.4,1.4-0.3,2.1c0.1,0.9,0.3,1.7,0.8,2.4c0.5,0.7,1.1,1.4,1.8,1.9
	c0.7,0.5,1.6,0.9,2.5,1.1c0.9,0.2,1.9,0.2,2.9-0.1c-0.2-1.4-0.4-2.6-0.6-3.6c-0.1-0.5-0.2-0.9-0.2-1.3c-0.1-0.4-0.1-0.8-0.2-1.2
	C25.4,55.7,25.4,55.3,25.3,54.9L25.3,54.9z M27.1,36.9c-0.5,0-1,0.2-1.4,0.7c-0.4,0.5-0.7,1.1-1,1.9c-0.3,0.8-0.4,1.6-0.5,2.5
	c-0.1,0.9-0.1,1.8,0.1,2.6c0.5-0.3,0.9-0.8,1.4-1.2c0.5-0.5,0.9-1,1.3-1.5c0.4-0.5,0.7-1.1,1-1.7c0.3-0.6,0.4-1.1,0.3-1.6
	c0-0.2,0-0.3-0.1-0.6c0-0.2-0.1-0.4-0.2-0.6c-0.1-0.2-0.2-0.3-0.4-0.5C27.5,36.9,27.3,36.9,27.1,36.9z M27,62c0.6-0.2,1-0.5,1.4-0.8
	c0.3-0.3,0.6-0.7,0.7-1.1c0.2-0.4,0.2-0.8,0.3-1.1c0-0.4,0-0.7,0-1c0-0.2-0.1-0.6-0.2-0.9c-0.1-0.4-0.3-0.7-0.5-1.1
	c-0.2-0.3-0.6-0.6-1-0.9s-1.1-0.3-1.8-0.3L27,62z"/>
<path d="M27.4,114.3c-0.1,0.2-0.2,0.4-0.4,0.6c-0.1,0.2-0.2,0.4-0.4,0.6c-0.1,0.2-0.3,0.4-0.4,0.5c-0.1,0.2-0.3,0.4-0.5,0.6
	c-0.2,0.2-0.3,0.4-0.5,0.6c-0.2,0.2-0.3,0.3-0.5,0.5c-0.2,0.2-0.3,0.3-0.5,0.4c-0.2,0.1-0.4,0.3-0.6,0.5c-0.3,0.2-0.5,0.4-0.8,0.5
	c-0.2,0.2-0.5,0.3-0.7,0.4c-0.2,0.1-0.5,0.2-0.7,0.3c-0.3,0.1-0.5,0.2-0.9,0.3c-0.3,0.1-0.7,0.2-1,0.3c-0.4,0.1-0.7,0.2-1.1,0.3
	c-0.4,0.1-0.8,0.2-1.2,0.2l-0.1-0.3c0.6-0.2,1.3-0.5,1.9-0.8c0.5-0.2,1.1-0.5,1.7-0.9s1.1-0.7,1.5-1.2c1.1-1.2,1.9-2.5,2.5-3.9
	c0.6-1.4,0.8-3,0.8-4.8c0-0.4,0-0.9-0.1-1.4c-0.1-0.5-0.2-1-0.5-1.5c-0.2-0.5-0.5-0.9-0.9-1.2c-0.4-0.3-0.9-0.5-1.6-0.5
	c-0.4,0-0.8,0.1-1.2,0.2c-0.4,0.2-0.8,0.4-1.1,0.6c-0.3,0.3-0.6,0.6-0.8,0.9c-0.2,0.3-0.3,0.7-0.3,1.1c0,0.1,0.1,0.1,0.1,0.1
	c0.1,0,0.2-0.1,0.3-0.1c0.1,0,0.3-0.1,0.5-0.1c0.2,0,0.5-0.1,0.7,0c0.3,0,0.6,0.1,0.8,0.3c0.2,0.2,0.4,0.4,0.5,0.6
	c0.1,0.3,0.2,0.5,0.3,0.9s0,0.6,0,0.9c-0.1,0.5-0.3,0.8-0.6,1.1c-0.3,0.3-0.7,0.4-1.2,0.4c-0.3,0-0.6-0.1-1-0.2
	c-0.3-0.1-0.6-0.3-0.8-0.5c-0.2-0.2-0.4-0.5-0.6-0.8c-0.1-0.3-0.2-0.7-0.2-1.1c0-0.6,0.1-1.1,0.2-1.6c0.1-0.5,0.3-0.8,0.5-1.2
	c0.2-0.3,0.4-0.6,0.7-0.8c0.2-0.2,0.5-0.4,0.7-0.5c0.5-0.3,1-0.5,1.5-0.6c0.5-0.1,1-0.2,1.5-0.2c0.5,0,1,0.1,1.6,0.3
	c0.5,0.2,1,0.4,1.5,0.7c0.5,0.3,0.9,0.7,1.3,1.1c0.4,0.4,0.6,0.9,0.8,1.5c0.2,0.6,0.4,1.3,0.4,2c0,0.7-0.1,1.4-0.3,2.2
	c-0.1,0.3-0.1,0.5-0.2,0.7c-0.1,0.2-0.1,0.4-0.2,0.6c-0.1,0.2-0.2,0.4-0.3,0.6S27.5,114.1,27.4,114.3z M29.4,106.4
	c0-0.3,0.1-0.6,0.3-0.8c0.2-0.2,0.5-0.3,0.8-0.3c0.3,0,0.6,0.1,0.8,0.3c0.2,0.2,0.3,0.5,0.3,0.8c0,0.3-0.1,0.6-0.3,0.8
	c-0.2,0.2-0.5,0.3-0.8,0.3c-0.3,0-0.6-0.1-0.8-0.3C29.5,107,29.4,106.7,29.4,106.4z M29.4,111.6c0-0.3,0.1-0.6,0.3-0.8
	c0.2-0.2,0.5-0.3,0.8-0.3c0.3,0,0.6,0.1,0.8,0.3c0.2,0.2,0.3,0.5,0.3,0.8c0,0.3-0.1,0.6-0.3,0.8c-0.2,0.2-0.5,0.3-0.8,0.3
	c-0.3,0-0.6-0.1-0.8-0.3C29.6,112.2,29.4,111.9,29.4,111.6z"/>
<path d="M38,39.1v-3.3h0.6v3.1l2-0.7v-3h0.6v2.8l0.8-0.3V40l-0.8,0.3v3L42,43v2.1l-0.8,0.3v3.3h-0.6v-3.2l-2,0.7v3H38v-2.8l-0.9,0.3
	v-2.1l0.9-0.3v-3.1l-0.9,0.3v-2.1L38,39.1z M38.6,41.1v3.1l2-0.7v-3.1L38.6,41.1z"/>
<path d="M38,105.8v-3.3h0.6v3.1l2-0.7v-3h0.6v2.8l0.8-0.3v2.1l-0.8,0.3v3l0.8-0.2v2.1l-0.8,0.3v3.3h-0.6v-3.2l-2,0.7v3H38v-2.8
	l-0.9,0.3v-2.1l0.9-0.3v-3.1l-0.9,0.3V106L38,105.8z M38.6,107.7v3.1l2-0.7V107L38.6,107.7z"/>
<path d="M57.4,60v1.4c0,0.2,0,0.4,0.1,0.5c0.1,0.1,0.2,0.2,0.3,0.2c0.2,0.1,0.3,0.1,0.5,0.1v0.5h-4.5v-0.5c0.2,0,0.3,0,0.5-0.1
	c0.1,0,0.2-0.1,0.3-0.2s0.2-0.3,0.2-0.5V60h-3.8l-0.4-0.4c0.4-0.6,0.8-1.1,1-1.5s0.5-0.8,0.7-1.2c0.2-0.4,0.4-0.7,0.5-1
	s0.2-0.6,0.3-1c0.1-0.3,0.2-0.7,0.3-1.1c0.1-0.4,0.2-0.8,0.3-1.3h3.5c-0.2,0.4-0.5,0.9-1,1.4c-0.4,0.5-0.9,1.1-1.4,1.7
	c-0.5,0.6-1.1,1.2-1.7,1.9s-1.1,1.2-1.6,1.8h3.2v-2.5l2.5-2.7v5.3h1.5V60H57.4z"/>
<path d="M57.4,49.7v1.4c0,0.2,0,0.4,0.1,0.5c0.1,0.1,0.2,0.2,0.3,0.2c0.2,0.1,0.3,0.1,0.5,0.1v0.5h-4.5v-0.5c0.2,0,0.3,0,0.5-0.1
	c0.1,0,0.2-0.1,0.3-0.2s0.2-0.3,0.2-0.5v-1.4h-3.8l-0.4-0.4c0.4-0.6,0.8-1.1,1-1.5s0.5-0.8,0.7-1.2c0.2-0.4,0.4-0.7,0.5-1
	s0.2-0.6,0.3-1c0.1-0.3,0.2-0.7,0.3-1.1c0.1-0.4,0.2-0.8,0.3-1.3h3.5c-0.2,0.4-0.5,0.9-1,1.4c-0.4,0.5-0.9,1.1-1.4,1.7
	c-0.5,0.6-1.1,1.2-1.7,1.9s-1.1,1.2-1.6,1.8h3.2v-2.5l2.5-2.7v5.3h1.5v0.6H57.4z"/>
<path d="M57.4,121.5v1.4c0,0.2,0,0.4,0.1,0.5c0.1,0.1,0.2,0.2,0.3,0.2c0.2,0.1,0.3,0.1,0.5,0.1v0.5h-4.5v-0.5c0.2,0,0.3,0,0.5-0.1
	c0.1,0,0.2-0.1,0.3-0.2s0.2-0.3,0.2-0.5v-1.4h-3.8l-0.4-0.4c0.4-0.6,0.8-1.1,1-1.5s0.5-0.8,0.7-1.2c0.2-0.4,0.4-0.7,0.5-1
	s0.2-0.6,0.3-1c0.1-0.3,0.2-0.7,0.3-1.1c0.1-0.4,0.2-0.8,0.3-1.3h3.5c-0.2,0.4-0.5,0.9-1,1.4c-0.4,0.5-0.9,1.1-1.4,1.7
	c-0.5,0.6-1.1,1.2-1.7,1.9s-1.1,1.2-1.6,1.8h3.2v-2.5l2.5-2.7v5.3h1.5v0.6H57.4z"/>
<path d="M57.4,111.2v1.4c0,0.2,0,0.4,0.1,0.5c0.1,0.1,0.2,0.2,0.3,0.2c0.2,0.1,0.3,0.1,0.5,0.1v0.5h-4.5v-0.5c0.2,0,0.3,0,0.5-0.1
	c0.1,0,0.2-0.1,0.3-0.2s0.2-0.3,0.2-0.5v-1.4h-3.8l-0.4-0.4c0.4-0.6,0.8-1.1,1-1.5s0.5-0.8,0.7-1.2c0.2-0.4,0.4-0.7,0.5-1
	s0.2-0.6,0.3-1c0.1-0.3,0.2-0.7,0.3-1.1c0.1-0.4,0.2-0.8,0.3-1.3h3.5c-0.2,0.4-0.5,0.9-1,1.4c-0.4,0.5-0.9,1.1-1.4,1.7
	c-0.5,0.6-1.1,1.2-1.7,1.9s-1.1,1.2-1.6,1.8h3.2v-2.5l2.5-2.7v5.3h1.5v0.6H57.4z"/>
<line fill="none" stroke="#000000" stroke-width="0.72" stroke-miterlimit="10" x1="233.8" y1="42.4" x2="233.8" y2="124.4"/>
<line fill="none" stroke="#000000" stroke-width="0.72" stroke-miterlimit="10" x1="379.1" y1="42.4" x2="379.1" y2="124.4"/>
<line fill="none" stroke="#000000" stroke-width="0.72" stroke-miterlimit="10" x1="11.1" y1="42.4" x2="478.9" y2="42.4"/>
<line fill="none" stroke="#000000" stroke-width="0.72" stroke-miterlimit="10" x1="11.1" y1="47.5" x2="478.9" y2="47.5"/>
<line fill="none" stroke="#000000" stroke-width="0.72" stroke-miterlimit="10" x1="11.1" y1="52.6" x2="478.9" y2="52.6"/>
<line fill="none" stroke="#000000" stroke-width="0.72" stroke-miterlimit="10" x1="11.1" y1="57.7" x2="478.9" y2="57.7"/>
<line fill="none" stroke="#000000" stroke-width="0.72" stroke-miterlimit="10" x1="11.1" y1="62.9" x2="478.9" y2="62.9"/>
<line fill="none" stroke="#000000" stroke-width="0.72" stroke-miterlimit="10" x1="11.1" y1="103.9" x2="478.9" y2="103.9"/>
<line fill="none" stroke="#000000" stroke-width="0.72" stroke-miterlimit="10" x1="11.1" y1="109" x2="478.9" y2="109"/>
<line fill="none" stroke="#000000" stroke-width="0.72" stroke-miterlimit="10" x1="11.1" y1="114.1" x2="478.9" y2="114.1"/>
<line fill="none" stroke="#000000" stroke-width="0.72" stroke-miterlimit="10" x1="11.1" y1="119.2" x2="478.9" y2="119.2"/>
<line fill="none" stroke="#000000" stroke-width="0.72" stroke-miterlimit="10" x1="11.1" y1="124.4" x2="478.9" y2="124.4"/>
<polyline points="8.5,42.4 7.4,44.2 6.4,46.1 5.7,47.9 5.1,49.6 4.6,51.2 4.2,52.9 4,54.4 3.9,56 3.9,57.4 3.9,58.9 4.1,60.3 
	4.3,61.6 4.5,62.9 5.4,66.7 5.8,67.9 6.1,69.1 6.4,70.2 6.7,71.3 6.9,72.4 7.1,73.4 7.2,74.5 7.2,75.5 7.2,76.5 7,77.5 6.7,78.5 
	6.4,79.5 5.8,80.5 5.2,81.4 4.3,82.4 3.4,83.3 4,83.3 4.9,82.6 5.7,81.8 6.4,80.9 6.9,80 7.4,79.1 7.7,78.1 7.9,77 8.1,75.9 
	8.2,74.8 8.2,73.6 8.1,72.4 8,71.2 7.9,69.8 7.7,68.6 7.5,67.3 7.3,65.9 6.6,61.8 6.4,60.4 6.2,59 6,57.6 5.9,56.2 5.8,54.8 
	5.9,53.4 6,52 6.1,50.6 6.3,49.2 6.6,47.8 7.1,46.5 7.6,45.2 8.3,43.9 "/>
<polyline points="8.5,124.4 7.4,122.5 6.4,120.6 5.7,118.9 5.1,117.1 4.6,115.4 4.2,113.8 4,112.3 3.9,110.8 3.9,109.3 3.9,107.8 
	4.1,106.4 4.3,105.1 4.5,103.7 5.1,101.2 5.4,100 5.8,98.8 6.7,95.4 6.9,94.3 7.1,93.3 7.2,92.2 7.2,91.2 7.2,90.2 7,89.2 6.7,88.2 
	6.4,87.2 5.8,86.2 5.2,85.3 4.3,84.3 3.4,83.3 4,83.3 4.9,84.1 5.7,84.9 6.4,85.8 6.9,86.7 7.4,87.7 7.7,88.7 7.9,89.7 8.1,90.8 
	8.2,92 8.2,93.1 8.1,94.3 7.9,96.8 7.7,98.1 7.5,99.4 7.3,100.8 7,102.1 6.6,104.9 6.4,106.3 6.2,107.7 6,109.1 5.9,110.5 
	5.8,111.9 5.9,113.3 6,114.7 6.1,116.1 6.3,117.5 6.6,118.9 7.1,120.2 7.6,121.6 8.3,122.9 "/>
<path d="M70.4,39.8c0.1-0.4,0.3-0.7,0.6-1c0.3-0.3,0.6-0.6,1-0.8c0.4-0.2,0.8-0.4,1.2-0.6c0.4-0.1,0.9-0.2,1.3-0.2
	c0.4,0,0.8,0.1,1.1,0.2s0.6,0.3,0.8,0.6c0.2,0.2,0.3,0.5,0.4,0.8c0,0.3,0,0.7-0.1,1c-0.1,0.4-0.3,0.7-0.6,1c-0.3,0.3-0.6,0.6-1,0.8
	c-0.4,0.2-0.8,0.4-1.2,0.6c-0.4,0.1-0.9,0.2-1.3,0.2c-0.4,0-0.8-0.1-1.1-0.2c-0.3-0.1-0.6-0.3-0.8-0.6c-0.2-0.2-0.3-0.5-0.4-0.9
	C70.2,40.5,70.2,40.2,70.4,39.8z"/>
<line fill="none" stroke="#000000" stroke-width="0.72" stroke-miterlimit="10" x1="76.4" y1="38.9" x2="76.4" y2="23.2"/>
<path d="M84.7,39.8c0.1-0.4,0.3-0.7,0.6-1c0.3-0.3,0.6-0.6,1-0.8c0.4-0.2,0.8-0.4,1.2-0.6c0.4-0.1,0.9-0.2,1.3-0.2
	c0.4,0,0.8,0.1,1.1,0.2s0.6,0.3,0.8,0.6c0.2,0.2,0.3,0.5,0.4,0.8c0,0.3,0,0.7-0.1,1c-0.1,0.4-0.3,0.7-0.6,1c-0.3,0.3-0.6,0.6-1,0.8
	c-0.4,0.2-0.8,0.4-1.2,0.6c-0.4,0.1-0.9,0.2-1.3,0.2c-0.4,0-0.8-0.1-1.1-0.2c-0.3-0.1-0.6-0.3-0.8-0.6c-0.2-0.2-0.3-0.5-0.4-0.9
	C84.5,40.5,84.5,40.2,84.7,39.8z"/>
<line fill="none" stroke="#000000" stroke-width="0.72" stroke-miterlimit="10" x1="90.7" y1="38.9" x2="90.7" y2="23.2"/>
<rect x="76" y="21.8" width="15" height="2.6"/>
<line fill="none" stroke="#000000" stroke-width="0.3" stroke-miterlimit="10" x1="102" y1="37.9" x2="108" y2="34"/>
<path d="M103.3,31.2c0,0.3,0.1,0.6,0.2,0.9c0.1,0.3,0.3,0.6,0.5,0.9c0.2,0.3,0.4,0.6,0.7,0.9c0.2,0.3,0.5,0.7,0.7,1.1
	c0.1,0.2,0.2,0.4,0.3,0.6c0.1,0.2,0.2,0.4,0.2,0.6c0.1,0.2,0.1,0.4,0.2,0.6c0,0.2,0.1,0.3,0.1,0.5c0,0.3,0.1,0.5,0.1,0.8
	c0,0.3,0,0.5,0,0.7c0,0.8-0.1,1.5-0.4,2.1l-0.1,0c0.1-0.3,0.2-0.6,0.3-1c0.1-0.4,0.1-0.8,0.1-1.1c0-0.3,0-0.6-0.1-1
	c0-0.4-0.1-0.7-0.2-1c-0.2-0.5-0.4-1-0.7-1.3c-0.3-0.3-0.5-0.5-0.7-0.7c-0.1-0.1-0.3-0.2-0.4-0.2c-0.1-0.1-0.3-0.1-0.4-0.1
	c-0.1,0-0.3-0.1-0.4-0.1h-0.2v-3.2H103.3L103.3,31.2z"/>
<line fill="none" stroke="#000000" stroke-width="0.42" stroke-miterlimit="10" x1="103.4" y1="49.5" x2="103.4" y2="31.7"/>
<path d="M99.8,42.4c0.1-0.2,0.2-0.4,0.4-0.6c0.2-0.2,0.4-0.4,0.6-0.5c0.2-0.1,0.5-0.3,0.7-0.3c0.3-0.1,0.5-0.1,0.8-0.1
	c0.3,0,0.5,0,0.7,0.1c0.2,0.1,0.4,0.2,0.5,0.3c0.1,0.1,0.2,0.3,0.2,0.5c0,0.2,0,0.4-0.1,0.6c-0.1,0.2-0.2,0.4-0.4,0.6
	c-0.2,0.2-0.4,0.4-0.6,0.5c-0.2,0.1-0.5,0.3-0.7,0.3c-0.3,0.1-0.5,0.1-0.8,0.1c-0.3,0-0.5,0-0.7-0.1c-0.2-0.1-0.3-0.2-0.5-0.4
	c-0.1-0.1-0.2-0.3-0.2-0.5C99.7,42.8,99.7,42.6,99.8,42.4z"/>
<path d="M95.7,48.1v-2h0.4V48l1.2-0.4v-1.8h0.4v1.7l0.5-0.2v1.3l-0.5,0.2v1.8l0.5-0.1v1.3l-0.5,0.2v2h-0.4V52l-1.2,0.4v1.8h-0.4
	v-1.7l-0.5,0.2v-1.3l0.5-0.2v-1.8l-0.5,0.2v-1.3L95.7,48.1z M96.1,49.3v1.8l1.2-0.4v-1.8L96.1,49.3z M99.8,50
	c0.1-0.2,0.2-0.4,0.4-0.6c0.2-0.2,0.4-0.4,0.6-0.5c0.2-0.1,0.5-0.3,0.7-0.3c0.3-0.1,0.5-0.1,0.8-0.1c0.3,0,0.5,0,0.7,0.1
	c0.2,0.1,0.4,0.2,0.5,0.3c0.1,0.1,0.2,0.3,0.2,0.5c0,0.2,0,0.4-0.1,0.6c-0.1,0.2-0.2,0.4-0.4,0.6c-0.2,0.2-0.4,0.4-0.6,0.5
	c-0.2,0.1-0.5,0.3-0.7,0.3c-0.3,0.1-0.5,0.1-0.8,0.1c-0.3,0-0.5,0-0.7-0.1c-0.2-0.1-0.3-0.2-0.5-0.4c-0.1-0.1-0.2-0.3-0.2-0.5
	C99.7,50.5,99.7,50.3,99.8,50z"/>
<path d="M110.9,39.8c0.1-0.4,0.3-0.7,0.6-1c0.3-0.3,0.6-0.6,1-0.8c0.4-0.2,0.8-0.4,1.2-0.6c0.4-0.1,0.9-0.2,1.3-0.2
	c0.4,0,0.8,0.1,1.1,0.2s0.6,0.3,0.8,0.6c0.2,0.2,0.3,0.5,0.4,0.8c0,0.3,0,0.7-0.1,1c-0.1,0.4-0.3,0.7-0.6,1c-0.3,0.3-0.6,0.6-1,0.8
	c-0.4,0.2-0.8,0.4-1.2,0.6c-0.4,0.1-0.9,0.2-1.3,0.2c-0.4,0-0.8-0.1-1.1-0.2c-0.3-0.1-0.6-0.3-0.8-0.6c-0.2-0.2-0.3-0.5-0.4-0.9
	C110.8,40.5,110.8,40.2,110.9,39.8z"/>
<path d="M110.9,47.5c0.1-0.4,0.3-0.7,0.6-1c0.3-0.3,0.6-0.6,1-0.8c0.4-0.2,0.8-0.4,1.2-0.6c0.4-0.1,0.9-0.2,1.3-0.2
	c0.4,0,0.8,0.1,1.1,0.2s0.6,0.3,0.8,0.6c0.2,0.2,0.3,0.5,0.4,0.8c0,0.3,0,0.7-0.1,1c-0.1,0.4-0.3,0.7-0.6,1c-0.3,0.3-0.6,0.6-1,0.8
	c-0.4,0.2-0.8,0.4-1.2,0.6c-0.4,0.1-0.9,0.2-1.3,0.2c-0.4,0-0.8-0.1-1.1-0.2c-0.3-0.1-0.6-0.3-0.8-0.6c-0.2-0.2-0.3-0.5-0.4-0.9
	C110.8,48.2,110.8,47.8,110.9,47.5z"/>
<line fill="none" stroke="#000000" stroke-width="0.72" stroke-miterlimit="10" x1="117" y1="46.6" x2="117" y2="23.2"/>
<path d="M135.4,50c0-0.3,0.1-0.5,0.3-0.7c0.2-0.2,0.5-0.3,0.8-0.3c0.3,0,0.6,0.1,0.8,0.3c0.2,0.2,0.3,0.4,0.3,0.7s-0.1,0.5-0.3,0.7
	s-0.5,0.3-0.8,0.3c-0.3,0-0.6-0.1-0.8-0.3S135.4,50.3,135.4,50z"/>
<path d="M124,46v11.7h-0.5v-4.4l-2.9,0.7V42.2h0.5v4.6L124,46z M121.1,48.7V52l2.3-0.6v-3.2L121.1,48.7z M126.6,50
	c0.1-0.4,0.3-0.7,0.6-1c0.3-0.3,0.6-0.6,1-0.8c0.4-0.2,0.8-0.4,1.2-0.6c0.4-0.1,0.9-0.2,1.3-0.2c0.4,0,0.8,0.1,1.1,0.2
	s0.6,0.3,0.8,0.6c0.2,0.2,0.3,0.5,0.4,0.8c0,0.3,0,0.7-0.1,1c-0.1,0.4-0.3,0.7-0.6,1c-0.3,0.3-0.6,0.6-1,0.8
	c-0.4,0.2-0.8,0.4-1.2,0.6c-0.4,0.1-0.9,0.2-1.3,0.2c-0.4,0-0.8-0.1-1.1-0.2c-0.3-0.1-0.6-0.3-0.8-0.6c-0.2-0.2-0.3-0.5-0.4-0.9
	C126.4,50.8,126.4,50.4,126.6,50z"/>
<line fill="none" stroke="#000000" stroke-width="0.72" stroke-miterlimit="10" x1="132.6" y1="49.2" x2="132.6" y2="25.7"/>
<polyline fill-rule="evenodd" clip-rule="evenodd" points="116.6,21.8 132.9,24.4 132.9,27 116.6,24.4 "/>
<polyline fill-rule="evenodd" clip-rule="evenodd" points="116.6,25.7 121.9,26.3 121.9,28.9 116.6,28.3 "/>
<path d="M151.1,39.8c0.1-0.4,0.3-0.7,0.6-1c0.3-0.3,0.6-0.6,1-0.8c0.4-0.2,0.8-0.4,1.2-0.6c0.4-0.1,0.9-0.2,1.3-0.2
	c0.4,0,0.8,0.1,1.1,0.2s0.6,0.3,0.8,0.6c0.2,0.2,0.3,0.5,0.4,0.8c0,0.3,0,0.7-0.1,1c-0.1,0.4-0.3,0.7-0.6,1c-0.3,0.3-0.6,0.6-1,0.8
	c-0.4,0.2-0.8,0.4-1.2,0.6c-0.4,0.1-0.9,0.2-1.3,0.2c-0.4,0-0.8-0.1-1.1-0.2c-0.3-0.1-0.6-0.3-0.8-0.6c-0.2-0.2-0.3-0.5-0.4-0.9
	C150.9,40.5,150.9,40.2,151.1,39.8z"/>
<path d="M151.1,45c0.1-0.4,0.3-0.7,0.6-1c0.3-0.3,0.6-0.6,1-0.8c0.4-0.2,0.8-0.4,1.2-0.6c0.4-0.1,0.9-0.2,1.3-0.2
	c0.4,0,0.8,0.1,1.1,0.2s0.6,0.3,0.8,0.6c0.2,0.2,0.3,0.5,0.4,0.8c0,0.3,0,0.7-0.1,1c-0.1,0.4-0.3,0.7-0.6,1c-0.3,0.3-0.6,0.6-1,0.8
	c-0.4,0.2-0.8,0.4-1.2,0.6c-0.4,0.1-0.9,0.2-1.3,0.2c-0.4,0-0.8-0.1-1.1-0.2c-0.3-0.1-0.6-0.3-0.8-0.6c-0.2-0.2-0.3-0.5-0.4-0.9
	C150.9,45.7,150.9,45.3,151.1,45z"/>
<path d="M151.1,50.1c0.1-0.4,0.3-0.7,0.6-1c0.3-0.3,0.6-0.6,1-0.8c0.4-0.2,0.8-0.4,1.2-0.6c0.4-0.1,0.9-0.2,1.3-0.2
	c0.4,0,0.8,0.1,1.1,0.2s0.6,0.3,0.8,0.6c0.2,0.2,0.3,0.5,0.4,0.8c0,0.3,0,0.7-0.1,1c-0.1,0.4-0.3,0.7-0.6,1c-0.3,0.3-0.6,0.6-1,0.8
	c-0.4,0.2-0.8,0.4-1.2,0.6c-0.4,0.1-0.9,0.2-1.3,0.2c-0.4,0-0.8-0.1-1.1-0.2c-0.3-0.1-0.6-0.3-0.8-0.6c-0.2-0.2-0.3-0.5-0.4-0.9
	C150.9,50.8,150.9,50.4,151.1,50.1z"/>
<line fill="none" stroke="#000000" stroke-width="0.72" stroke-miterlimit="10" x1="157.1" y1="49.2" x2="157.1" y2="23.2"/>
<path d="M162,55.2c0.1-0.4,0.3-0.7,0.6-1c0.3-0.3,0.6-0.6,1-0.8c0.4-0.2,0.8-0.4,1.2-0.6c0.4-0.1,0.9-0.2,1.3-0.2
	c0.4,0,0.8,0.1,1.1,0.2s0.6,0.3,0.8,0.6c0.2,0.2,0.3,0.5,0.4,0.8c0,0.3,0,0.7-0.1,1c-0.1,0.4-0.3,0.7-0.6,1c-0.3,0.3-0.6,0.6-1,0.8
	c-0.4,0.2-0.8,0.4-1.2,0.6c-0.4,0.1-0.9,0.2-1.3,0.2c-0.4,0-0.8-0.1-1.1-0.2c-0.3-0.1-0.6-0.3-0.8-0.6c-0.2-0.2-0.3-0.5-0.4-0.9
	C161.8,55.9,161.9,55.5,162,55.2z"/>
<line fill="none" stroke="#000000" stroke-width="0.72" stroke-miterlimit="10" x1="168" y1="54.3" x2="168" y2="23.2"/>
<path d="M177.8,39.8c0.1-0.4,0.3-0.7,0.6-1c0.3-0.3,0.6-0.6,1-0.8c0.4-0.2,0.8-0.4,1.2-0.6c0.4-0.1,0.9-0.2,1.3-0.2
	c0.4,0,0.8,0.1,1.1,0.2s0.6,0.3,0.8,0.6c0.2,0.2,0.3,0.5,0.4,0.8c0,0.3,0,0.7-0.1,1c-0.1,0.4-0.3,0.7-0.6,1c-0.3,0.3-0.6,0.6-1,0.8
	c-0.4,0.2-0.8,0.4-1.2,0.6c-0.4,0.1-0.9,0.2-1.3,0.2c-0.4,0-0.8-0.1-1.1-0.2c-0.3-0.1-0.6-0.3-0.8-0.6c-0.2-0.2-0.3-0.5-0.4-0.9
	C177.6,40.5,177.6,40.2,177.8,39.8z"/>
<path d="M172.2,45.4V49v1.3c0.2-0.2,0.4-0.3,0.5-0.4c0.2-0.1,0.3-0.2,0.5-0.3c0.2-0.1,0.3-0.1,0.5-0.1c0.2,0,0.4,0,0.6,0
	c0.3,0,0.5,0.1,0.7,0.2c0.2,0.1,0.4,0.3,0.5,0.4c0.2,0.2,0.3,0.4,0.3,0.6c0.1,0.2,0.1,0.4,0.1,0.6c0,0.2,0,0.4-0.1,0.6
	c-0.1,0.2-0.1,0.4-0.2,0.6c-0.1,0.2-0.2,0.4-0.5,0.6c-0.2,0.2-0.4,0.3-0.6,0.5c-0.1,0.1-0.2,0.2-0.3,0.3c-0.2,0.1-0.4,0.3-0.6,0.5
	c-0.2,0.2-0.5,0.3-0.7,0.5c-0.2,0.2-0.5,0.3-0.7,0.5c-0.2,0.1-0.4,0.3-0.7,0.5V43.7h0.5V45.4z M173.8,50.8L173.8,50.8
	c-0.1-0.1-0.2-0.2-0.3-0.2c-0.1-0.1-0.2-0.1-0.4-0.1c-0.1,0-0.3,0-0.4,0.1c-0.1,0.1-0.3,0.2-0.4,0.4c-0.1,0.3-0.2,0.6-0.2,1
	c0,0.4,0,0.7,0,1.1v1.8c0.2-0.1,0.3-0.2,0.4-0.3c0.1-0.1,0.2-0.2,0.4-0.3c0.1-0.1,0.2-0.2,0.4-0.3c0.2-0.2,0.4-0.4,0.5-0.6
	c0.1-0.2,0.2-0.5,0.3-0.8c0.1-0.3,0.1-0.6,0.1-0.9C174.1,51.2,174,51,173.8,50.8z M177.8,52.6c0.1-0.4,0.3-0.7,0.6-1
	c0.3-0.3,0.6-0.6,1-0.8c0.4-0.2,0.8-0.4,1.2-0.6c0.4-0.1,0.9-0.2,1.3-0.2c0.4,0,0.8,0.1,1.1,0.2s0.6,0.3,0.8,0.6
	c0.2,0.2,0.3,0.5,0.4,0.8c0,0.3,0,0.7-0.1,1c-0.1,0.4-0.3,0.7-0.6,1c-0.3,0.3-0.6,0.6-1,0.8c-0.4,0.2-0.8,0.4-1.2,0.6
	c-0.4,0.1-0.9,0.2-1.3,0.2c-0.4,0-0.8-0.1-1.1-0.2c-0.3-0.1-0.6-0.3-0.8-0.6c-0.2-0.2-0.3-0.5-0.4-0.9
	C177.6,53.4,177.6,53,177.8,52.6z"/>
<line fill="none" stroke="#000000" stroke-width="0.72" stroke-miterlimit="10" x1="183.8" y1="51.7" x2="183.8" y2="23.2"/>
<rect x="156.7" y="21.8" width="27.4" height="2.6"/>
<rect x="156.7" y="25.7" width="11.6" height="2.6"/>
<line fill="none" stroke="#000000" stroke-width="0.72" stroke-miterlimit="10" x1="216.4" y1="59.5" x2="216.4" y2="27"/>
<path d="M210.4,39.8c0.1-0.4,0.3-0.7,0.6-1c0.3-0.3,0.6-0.6,1-0.8c0.4-0.2,0.8-0.4,1.2-0.6c0.4-0.1,0.9-0.2,1.3-0.2
	c0.4,0,0.8,0.1,1.1,0.2s0.6,0.3,0.8,0.6c0.2,0.2,0.3,0.5,0.4,0.8c0,0.3,0,0.7-0.1,1c-0.1,0.4-0.3,0.7-0.6,1c-0.3,0.3-0.6,0.6-1,0.8
	c-0.4,0.2-0.8,0.4-1.2,0.6c-0.4,0.1-0.9,0.2-1.3,0.2c-0.4,0-0.8-0.1-1.1-0.2c-0.3-0.1-0.6-0.3-0.8-0.6c-0.2-0.2-0.3-0.5-0.4-0.9
	C210.2,40.5,210.3,40.2,210.4,39.8z"/>
<path d="M210.4,45c0.1-0.4,0.3-0.7,0.6-1c0.3-0.3,0.6-0.6,1-0.8c0.4-0.2,0.8-0.4,1.2-0.6c0.4-0.1,0.9-0.2,1.3-0.2
	c0.4,0,0.8,0.1,1.1,0.2s0.6,0.3,0.8,0.6c0.2,0.2,0.3,0.5,0.4,0.8c0,0.3,0,0.7-0.1,1c-0.1,0.4-0.3,0.7-0.6,1c-0.3,0.3-0.6,0.6-1,0.8
	c-0.4,0.2-0.8,0.4-1.2,0.6c-0.4,0.1-0.9,0.2-1.3,0.2c-0.4,0-0.8-0.1-1.1-0.2c-0.3-0.1-0.6-0.3-0.8-0.6c-0.2-0.2-0.3-0.5-0.4-0.9
	C210.2,45.7,210.3,45.3,210.4,45z"/>
<path d="M210.4,52.6c0.1-0.4,0.3-0.7,0.6-1c0.3-0.3,0.6-0.6,1-0.8c0.4-0.2,0.8-0.4,1.2-0.6c0.4-0.1,0.9-0.2,1.3-0.2
	c0.4,0,0.8,0.1,1.1,0.2s0.6,0.3,0.8,0.6c0.2,0.2,0.3,0.5,0.4,0.8c0,0.3,0,0.7-0.1,1c-0.1,0.4-0.3,0.7-0.6,1c-0.3,0.3-0.6,0.6-1,0.8
	c-0.4,0.2-0.8,0.4-1.2,0.6c-0.4,0.1-0.9,0.2-1.3,0.2c-0.4,0-0.8-0.1-1.1-0.2c-0.3-0.1-0.6-0.3-0.8-0.6c-0.2-0.2-0.3-0.5-0.4-0.9
	C210.2,53.4,210.3,53,210.4,52.6z"/>
<path d="M210.4,60.3c0.1-0.4,0.3-0.7,0.6-1c0.3-0.3,0.6-0.6,1-0.8c0.4-0.2,0.8-0.4,1.2-0.6c0.4-0.1,0.9-0.2,1.3-0.2
	c0.4,0,0.8,0.1,1.1,0.2s0.6,0.3,0.8,0.6c0.2,0.2,0.3,0.5,0.4,0.8c0,0.3,0,0.7-0.1,1c-0.1,0.4-0.3,0.7-0.6,1c-0.3,0.3-0.6,0.6-1,0.8
	c-0.4,0.2-0.8,0.4-1.2,0.6c-0.4,0.1-0.9,0.2-1.3,0.2c-0.4,0-0.8-0.1-1.1-0.2c-0.3-0.1-0.6-0.3-0.8-0.6c-0.2-0.2-0.3-0.5-0.4-0.9
	C210.2,61,210.3,60.7,210.4,60.3z"/>
<path d="M204.8,37.7v3.6v1.3c0.2-0.2,0.4-0.3,0.5-0.4c0.2-0.1,0.3-0.2,0.5-0.3c0.2-0.1,0.3-0.1,0.5-0.1c0.2,0,0.4,0,0.6,0
	c0.3,0,0.5,0.1,0.7,0.2c0.2,0.1,0.4,0.3,0.5,0.4c0.2,0.2,0.3,0.4,0.3,0.6c0.1,0.2,0.1,0.4,0.1,0.6c0,0.2,0,0.4-0.1,0.6
	c-0.1,0.2-0.1,0.4-0.2,0.6c-0.1,0.2-0.2,0.4-0.5,0.6c-0.2,0.2-0.4,0.3-0.6,0.5c-0.1,0.1-0.2,0.2-0.3,0.3c-0.2,0.1-0.4,0.3-0.6,0.5
	c-0.2,0.2-0.5,0.3-0.7,0.5c-0.2,0.2-0.5,0.3-0.7,0.5c-0.2,0.1-0.4,0.3-0.7,0.5V36h0.5V37.7z M206.5,43.1L206.5,43.1
	c-0.1-0.1-0.2-0.2-0.3-0.2c-0.1-0.1-0.2-0.1-0.4-0.1c-0.1,0-0.3,0-0.4,0.1c-0.1,0.1-0.3,0.2-0.4,0.4c-0.1,0.3-0.2,0.6-0.2,1
	c0,0.4,0,0.7,0,1.1v1.8c0.2-0.1,0.3-0.2,0.4-0.3c0.1-0.1,0.2-0.2,0.4-0.3c0.1-0.1,0.2-0.2,0.4-0.3c0.2-0.2,0.4-0.4,0.5-0.6
	c0.1-0.2,0.2-0.5,0.3-0.8c0.1-0.3,0.1-0.6,0.1-0.9C206.8,43.5,206.7,43.3,206.5,43.1z"/>
<path d="M207.9,56.3V68h-0.5v-4.4l-2.9,0.7V52.5h0.5v4.6L207.9,56.3z M205,59v3.2l2.3-0.6v-3.2L205,59z"/>
<path d="M201.9,48.6v11.7h-0.5v-4.4l-2.9,0.7V44.8h0.5v4.6L201.9,48.6z M199,51.3v3.2l2.3-0.6v-3.2L199,51.3z"/>
<path d="M219.9,21.7c-0.3-1.1-0.7-1.9-1.2-2.5c-0.5-0.6-1-1.1-1.6-1.4c-0.6-0.3-1.1-0.5-1.7-0.6c-0.6-0.1-1-0.1-1.5-0.1
	c-0.4,0-0.9,0-1.5,0.1c-0.6,0.1-1.1,0.3-1.7,0.6c-0.6,0.3-1.1,0.8-1.6,1.4c-0.5,0.6-0.9,1.4-1.2,2.5h-0.3c0-0.5,0.1-1.1,0.2-1.6
	c0.2-0.6,0.4-1.1,0.6-1.6c0.3-0.5,0.6-1,1-1.5c0.4-0.5,0.8-0.9,1.3-1.2c0.5-0.3,0.9-0.6,1.5-0.8c0.5-0.2,1.1-0.3,1.7-0.3
	c0.6,0,1.1,0.1,1.6,0.3c0.5,0.2,1,0.5,1.5,0.8c0.5,0.3,0.9,0.8,1.3,1.2c0.4,0.5,0.7,1,1,1.5c0.3,0.5,0.5,1.1,0.6,1.6
	c0.2,0.6,0.2,1.1,0.2,1.6H219.9z M215.4,20.7c0,0.4-0.1,0.7-0.4,1c-0.3,0.3-0.6,0.4-1,0.4c-0.4,0-0.7-0.1-1-0.4
	c-0.3-0.3-0.4-0.6-0.4-1c0-0.4,0.1-0.7,0.4-1c0.3-0.3,0.6-0.4,1-0.4c0.4,0,0.7,0.1,1,0.4C215.2,20,215.4,20.3,215.4,20.7z"/>
<line fill="none" stroke="#000000" stroke-width="0.72" stroke-miterlimit="10" x1="70.5" y1="48.3" x2="70.5" y2="68"/>
<path d="M70.4,47.5c0.1-0.4,0.3-0.7,0.6-1c0.3-0.3,0.6-0.6,1-0.8c0.4-0.2,0.8-0.4,1.2-0.6c0.4-0.1,0.9-0.2,1.3-0.2
	c0.4,0,0.8,0.1,1.1,0.2s0.6,0.3,0.8,0.6c0.2,0.2,0.3,0.5,0.4,0.8c0,0.3,0,0.7-0.1,1c-0.1,0.4-0.3,0.7-0.6,1c-0.3,0.3-0.6,0.6-1,0.8
	c-0.4,0.2-0.8,0.4-1.2,0.6c-0.4,0.1-0.9,0.2-1.3,0.2c-0.4,0-0.8-0.1-1.1-0.2c-0.3-0.1-0.6-0.3-0.8-0.6c-0.2-0.2-0.3-0.5-0.4-0.9
	C70.2,48.2,70.2,47.8,70.4,47.5z"/>
<path d="M70.4,55.1c0.1-0.4,0.3-0.7,0.6-1c0.3-0.3,0.6-0.6,1-0.8c0.4-0.2,0.8-0.4,1.2-0.6c0.4-0.1,0.9-0.2,1.3-0.2
	c0.4,0,0.8,0.1,1.1,0.2s0.6,0.3,0.8,0.6c0.2,0.2,0.3,0.5,0.4,0.8c0,0.3,0,0.7-0.1,1c-0.1,0.4-0.3,0.7-0.6,1c-0.3,0.3-0.6,0.6-1,0.8
	c-0.4,0.2-0.8,0.4-1.2,0.6c-0.4,0.1-0.9,0.2-1.3,0.2c-0.4,0-0.8-0.1-1.1-0.2c-0.3-0.1-0.6-0.3-0.8-0.6c-0.2-0.2-0.3-0.5-0.4-0.9
	C70.2,55.9,70.2,55.5,70.4,55.1z"/>
<line fill="none" stroke="#000000" stroke-width="0.72" stroke-miterlimit="10" x1="70.5" y1="94.4" x2="70.5" y2="129.5"/>
<line fill="none" stroke="#000000" stroke-width="0.72" stroke-miterlimit="10" x1="68.9" y1="98.7" x2="78.1" y2="98.7"/>
<line fill="none" stroke="#000000" stroke-width="0.72" stroke-miterlimit="10" x1="68.9" y1="93.6" x2="78.1" y2="93.6"/>
<path d="M70.4,93.6c0.1-0.4,0.3-0.7,0.6-1c0.3-0.3,0.6-0.6,1-0.8c0.4-0.2,0.8-0.4,1.2-0.6c0.4-0.1,0.9-0.2,1.3-0.2
	c0.4,0,0.8,0.1,1.1,0.2s0.6,0.3,0.8,0.6c0.2,0.2,0.3,0.5,0.4,0.8c0,0.3,0,0.7-0.1,1c-0.1,0.4-0.3,0.7-0.6,1c-0.3,0.3-0.6,0.6-1,0.8
	c-0.4,0.2-0.8,0.4-1.2,0.6c-0.4,0.1-0.9,0.2-1.3,0.2c-0.4,0-0.8-0.1-1.1-0.2c-0.3-0.1-0.6-0.3-0.8-0.6c-0.2-0.2-0.3-0.5-0.4-0.9
	C70.2,94.3,70.2,94,70.4,93.6z"/>
<path d="M70.4,106.5c0.1-0.4,0.3-0.7,0.6-1c0.3-0.3,0.6-0.6,1-0.8c0.4-0.2,0.8-0.4,1.2-0.6c0.4-0.1,0.9-0.2,1.3-0.2
	c0.4,0,0.8,0.1,1.1,0.2s0.6,0.3,0.8,0.6c0.2,0.2,0.3,0.5,0.4,0.8c0,0.3,0,0.7-0.1,1c-0.1,0.4-0.3,0.7-0.6,1c-0.3,0.3-0.6,0.6-1,0.8
	c-0.4,0.2-0.8,0.4-1.2,0.6c-0.4,0.1-0.9,0.2-1.3,0.2c-0.4,0-0.8-0.1-1.1-0.2c-0.3-0.1-0.6-0.3-0.8-0.6c-0.2-0.2-0.3-0.5-0.4-0.9
	C70.2,107.2,70.2,106.8,70.4,106.5z"/>
<path d="M70.4,116.7c0.1-0.4,0.3-0.7,0.6-1c0.3-0.3,0.6-0.6,1-0.8c0.4-0.2,0.8-0.4,1.2-0.6c0.4-0.1,0.9-0.2,1.3-0.2
	c0.4,0,0.8,0.1,1.1,0.2s0.6,0.3,0.8,0.6c0.2,0.2,0.3,0.5,0.4,0.8c0,0.3,0,0.7-0.1,1c-0.1,0.4-0.3,0.7-0.6,1c-0.3,0.3-0.6,0.6-1,0.8
	c-0.4,0.2-0.8,0.4-1.2,0.6c-0.4,0.1-0.9,0.2-1.3,0.2c-0.4,0-0.8-0.1-1.1-0.2c-0.3-0.1-0.6-0.3-0.8-0.6c-0.2-0.2-0.3-0.5-0.4-0.9
	C70.2,117.4,70.2,117,70.4,116.7z"/>
<line fill="none" stroke="#000000" stroke-width="0.72" stroke-miterlimit="10" x1="109.5" y1="98.7" x2="118.7" y2="98.7"/>
<line fill="none" stroke="#000000" stroke-width="0.72" stroke-miterlimit="10" x1="109.5" y1="93.6" x2="118.7" y2="93.6"/>
<line fill="none" stroke="#000000" stroke-width="0.72" stroke-miterlimit="10" x1="109.5" y1="88.5" x2="118.7" y2="88.5"/>
<path d="M110.9,88.5c0.1-0.4,0.3-0.7,0.6-1c0.3-0.3,0.6-0.6,1-0.8c0.4-0.2,0.8-0.4,1.2-0.6c0.4-0.1,0.9-0.2,1.3-0.2
	c0.4,0,0.8,0.1,1.1,0.2s0.6,0.3,0.8,0.6c0.2,0.2,0.3,0.5,0.4,0.8c0,0.3,0,0.7-0.1,1c-0.1,0.4-0.3,0.7-0.6,1c-0.3,0.3-0.6,0.6-1,0.8
	c-0.4,0.2-0.8,0.4-1.2,0.6c-0.4,0.1-0.9,0.2-1.3,0.2c-0.4,0-0.8-0.1-1.1-0.2c-0.3-0.1-0.6-0.3-0.8-0.6c-0.2-0.2-0.3-0.5-0.4-0.9
	C110.8,89.2,110.8,88.9,110.9,88.5z"/>
<path d="M110.9,101.3c0.1-0.4,0.3-0.7,0.6-1c0.3-0.3,0.6-0.6,1-0.8c0.4-0.2,0.8-0.4,1.2-0.6c0.4-0.1,0.9-0.2,1.3-0.2
	c0.4,0,0.8,0.1,1.1,0.2s0.6,0.3,0.8,0.6c0.2,0.2,0.3,0.5,0.4,0.8c0,0.3,0,0.7-0.1,1c-0.1,0.4-0.3,0.7-0.6,1c-0.3,0.3-0.6,0.6-1,0.8
	c-0.4,0.2-0.8,0.4-1.2,0.6c-0.4,0.1-0.9,0.2-1.3,0.2c-0.4,0-0.8-0.1-1.1-0.2c-0.3-0.1-0.6-0.3-0.8-0.6c-0.2-0.2-0.3-0.5-0.4-0.9
	C110.8,102,110.8,101.7,110.9,101.3z"/>
<path d="M110.9,111.6c0.1-0.4,0.3-0.7,0.6-1c0.3-0.3,0.6-0.6,1-0.8c0.4-0.2,0.8-0.4,1.2-0.6c0.4-0.1,0.9-0.2,1.3-0.2
	c0.4,0,0.8,0.1,1.1,0.2s0.6,0.3,0.8,0.6c0.2,0.2,0.3,0.5,0.4,0.8c0,0.3,0,0.7-0.1,1c-0.1,0.4-0.3,0.7-0.6,1c-0.3,0.3-0.6,0.6-1,0.8
	c-0.4,0.2-0.8,0.4-1.2,0.6c-0.4,0.1-0.9,0.2-1.3,0.2c-0.4,0-0.8-0.1-1.1-0.2c-0.3-0.1-0.6-0.3-0.8-0.6c-0.2-0.2-0.3-0.5-0.4-0.9
	C110.8,112.3,110.8,111.9,110.9,111.6z"/>
<line fill="none" stroke="#000000" stroke-width="0.72" stroke-miterlimit="10" x1="111.1" y1="89.3" x2="111.1" y2="128.2"/>
<line fill="none" stroke="#000000" stroke-width="0.72" stroke-miterlimit="10" x1="134.1" y1="98.7" x2="143.2" y2="98.7"/>
<line fill="none" stroke="#000000" stroke-width="0.72" stroke-miterlimit="10" x1="134.1" y1="93.6" x2="143.2" y2="93.6"/>
<path d="M135.5,91c0.1-0.4,0.3-0.7,0.6-1c0.3-0.3,0.6-0.6,1-0.8c0.4-0.2,0.8-0.4,1.2-0.6c0.4-0.1,0.9-0.2,1.3-0.2
	c0.4,0,0.8,0.1,1.1,0.2s0.6,0.3,0.8,0.6c0.2,0.2,0.3,0.5,0.4,0.8c0,0.3,0,0.7-0.1,1c-0.1,0.4-0.3,0.7-0.6,1c-0.3,0.3-0.6,0.6-1,0.8
	c-0.4,0.2-0.8,0.4-1.2,0.6c-0.4,0.1-0.9,0.2-1.3,0.2c-0.4,0-0.8-0.1-1.1-0.2c-0.3-0.1-0.6-0.3-0.8-0.6c-0.2-0.2-0.3-0.5-0.4-0.9
	C135.3,91.7,135.3,91.4,135.5,91z"/>
<path d="M135.5,101.3c0.1-0.4,0.3-0.7,0.6-1c0.3-0.3,0.6-0.6,1-0.8c0.4-0.2,0.8-0.4,1.2-0.6c0.4-0.1,0.9-0.2,1.3-0.2
	c0.4,0,0.8,0.1,1.1,0.2s0.6,0.3,0.8,0.6c0.2,0.2,0.3,0.5,0.4,0.8c0,0.3,0,0.7-0.1,1c-0.1,0.4-0.3,0.7-0.6,1c-0.3,0.3-0.6,0.6-1,0.8
	c-0.4,0.2-0.8,0.4-1.2,0.6c-0.4,0.1-0.9,0.2-1.3,0.2c-0.4,0-0.8-0.1-1.1-0.2c-0.3-0.1-0.6-0.3-0.8-0.6c-0.2-0.2-0.3-0.5-0.4-0.9
	C135.3,102,135.3,101.7,135.5,101.3z"/>
<path d="M135.5,111.6c0.1-0.4,0.3-0.7,0.6-1c0.3-0.3,0.6-0.6,1-0.8c0.4-0.2,0.8-0.4,1.2-0.6c0.4-0.1,0.9-0.2,1.3-0.2
	c0.4,0,0.8,0.1,1.1,0.2s0.6,0.3,0.8,0.6c0.2,0.2,0.3,0.5,0.4,0.8c0,0.3,0,0.7-0.1,1c-0.1,0.4-0.3,0.7-0.6,1c-0.3,0.3-0.6,0.6-1,0.8
	c-0.4,0.2-0.8,0.4-1.2,0.6c-0.4,0.1-0.9,0.2-1.3,0.2c-0.4,0-0.8-0.1-1.1-0.2c-0.3-0.1-0.6-0.3-0.8-0.6c-0.2-0.2-0.3-0.5-0.4-0.9
	C135.3,112.3,135.3,111.9,135.5,111.6z"/>
<path d="M129.9,94v3.6V99c0.2-0.2,0.4-0.3,0.5-0.4c0.2-0.1,0.3-0.2,0.5-0.3c0.2-0.1,0.3-0.1,0.5-0.1c0.2,0,0.4,0,0.6,0
	c0.3,0,0.5,0.1,0.7,0.2c0.2,0.1,0.4,0.3,0.5,0.4c0.2,0.2,0.3,0.4,0.3,0.6c0.1,0.2,0.1,0.4,0.1,0.6c0,0.2,0,0.4-0.1,0.6
	c-0.1,0.2-0.1,0.4-0.2,0.6c-0.1,0.2-0.2,0.4-0.5,0.6c-0.2,0.2-0.4,0.3-0.6,0.5c-0.1,0.1-0.2,0.2-0.3,0.3c-0.2,0.1-0.4,0.3-0.6,0.5
	s-0.5,0.3-0.7,0.5c-0.2,0.2-0.5,0.3-0.7,0.5c-0.2,0.1-0.4,0.3-0.7,0.5V92.4h0.5V94z M131.6,99.4L131.6,99.4
	c-0.1-0.1-0.2-0.2-0.3-0.2c-0.1-0.1-0.2-0.1-0.4-0.1c-0.1,0-0.3,0-0.4,0.1c-0.1,0.1-0.3,0.2-0.4,0.4c-0.1,0.3-0.2,0.6-0.2,1
	c0,0.4,0,0.7,0,1.1v1.8c0.2-0.1,0.3-0.2,0.4-0.3c0.1-0.1,0.2-0.2,0.4-0.3c0.1-0.1,0.2-0.2,0.4-0.3c0.2-0.2,0.4-0.4,0.5-0.6
	c0.1-0.2,0.2-0.5,0.3-0.8c0.1-0.3,0.1-0.6,0.1-0.9C131.9,99.9,131.8,99.6,131.6,99.4z"/>
<path d="M123.9,104.3v3.6v1.3c0.2-0.2,0.4-0.3,0.5-0.4c0.2-0.1,0.3-0.2,0.5-0.3c0.2-0.1,0.3-0.1,0.5-0.1c0.2,0,0.4,0,0.6,0
	c0.3,0,0.5,0.1,0.7,0.2c0.2,0.1,0.4,0.3,0.5,0.4c0.2,0.2,0.3,0.4,0.3,0.6c0.1,0.2,0.1,0.4,0.1,0.6c0,0.2,0,0.4-0.1,0.6
	c-0.1,0.2-0.1,0.4-0.2,0.6c-0.1,0.2-0.2,0.4-0.5,0.6c-0.2,0.2-0.4,0.3-0.6,0.5c-0.1,0.1-0.2,0.2-0.3,0.3c-0.2,0.1-0.4,0.3-0.6,0.5
	s-0.5,0.3-0.7,0.5c-0.2,0.2-0.5,0.3-0.7,0.5c-0.2,0.1-0.4,0.3-0.7,0.5v-12.1h0.5V104.3z M125.6,109.7L125.6,109.7
	c-0.1-0.1-0.2-0.2-0.3-0.2c-0.1-0.1-0.2-0.1-0.4-0.1c-0.1,0-0.3,0-0.4,0.1c-0.1,0.1-0.3,0.2-0.4,0.4c-0.1,0.3-0.2,0.6-0.2,1
	c0,0.4,0,0.7,0,1.1v1.8c0.2-0.1,0.3-0.2,0.4-0.3c0.1-0.1,0.2-0.2,0.4-0.3c0.1-0.1,0.2-0.2,0.4-0.3c0.2-0.2,0.4-0.4,0.5-0.6
	c0.1-0.2,0.2-0.5,0.3-0.8c0.1-0.3,0.1-0.6,0.1-0.9C125.9,110.1,125.8,109.9,125.6,109.7z"/>
<line fill="none" stroke="#000000" stroke-width="0.72" stroke-miterlimit="10" x1="135.6" y1="91.9" x2="135.6" y2="128.2"/>
<rect x="110.8" y="126.9" width="25.3" height="2.6"/>
<line fill="none" stroke="#000000" stroke-width="0.72" stroke-miterlimit="10" x1="149.7" y1="98.7" x2="158.8" y2="98.7"/>
<path d="M151.1,98.7c0.1-0.4,0.3-0.7,0.6-1c0.3-0.3,0.6-0.6,1-0.8c0.4-0.2,0.8-0.4,1.2-0.6c0.4-0.1,0.9-0.2,1.3-0.2
	c0.4,0,0.8,0.1,1.1,0.2s0.6,0.3,0.8,0.6c0.2,0.2,0.3,0.5,0.4,0.8c0,0.3,0,0.7-0.1,1c-0.1,0.4-0.3,0.7-0.6,1c-0.3,0.3-0.6,0.6-1,0.8
	c-0.4,0.2-0.8,0.4-1.2,0.6c-0.4,0.1-0.9,0.2-1.3,0.2c-0.4,0-0.8-0.1-1.1-0.2c-0.3-0.1-0.6-0.3-0.8-0.6c-0.2-0.2-0.3-0.5-0.4-0.9
	C150.9,99.4,150.9,99.1,151.1,98.7z"/>
<path d="M151.1,103.9c0.1-0.4,0.3-0.7,0.6-1c0.3-0.3,0.6-0.6,1-0.8c0.4-0.2,0.8-0.4,1.2-0.6c0.4-0.1,0.9-0.2,1.3-0.2
	c0.4,0,0.8,0.1,1.1,0.2s0.6,0.3,0.8,0.6c0.2,0.2,0.3,0.5,0.4,0.8c0,0.3,0,0.7-0.1,1c-0.1,0.4-0.3,0.7-0.6,1c-0.3,0.3-0.6,0.6-1,0.8
	c-0.4,0.2-0.8,0.4-1.2,0.6c-0.4,0.1-0.9,0.2-1.3,0.2c-0.4,0-0.8-0.1-1.1-0.2c-0.3-0.1-0.6-0.3-0.8-0.6c-0.2-0.2-0.3-0.5-0.4-0.9
	C150.9,104.6,150.9,104.3,151.1,103.9z"/>
<path d="M151.1,114.1c0.1-0.4,0.3-0.7,0.6-1c0.3-0.3,0.6-0.6,1-0.8c0.4-0.2,0.8-0.4,1.2-0.6c0.4-0.1,0.9-0.2,1.3-0.2
	c0.4,0,0.8,0.1,1.1,0.2s0.6,0.3,0.8,0.6c0.2,0.2,0.3,0.5,0.4,0.8c0,0.3,0,0.7-0.1,1c-0.1,0.4-0.3,0.7-0.6,1c-0.3,0.3-0.6,0.6-1,0.8
	c-0.4,0.2-0.8,0.4-1.2,0.6c-0.4,0.1-0.9,0.2-1.3,0.2c-0.4,0-0.8-0.1-1.1-0.2c-0.3-0.1-0.6-0.3-0.8-0.6c-0.2-0.2-0.3-0.5-0.4-0.9
	C150.9,114.9,150.9,114.5,151.1,114.1z"/>
<line fill="none" stroke="#000000" stroke-width="0.72" stroke-miterlimit="10" x1="151.2" y1="99.6" x2="151.2" y2="130.7"/>
<path d="M177.8,106.5c0.1-0.4,0.3-0.7,0.6-1c0.3-0.3,0.6-0.6,1-0.8c0.4-0.2,0.8-0.4,1.2-0.6c0.4-0.1,0.9-0.2,1.3-0.2
	c0.4,0,0.8,0.1,1.1,0.2s0.6,0.3,0.8,0.6c0.2,0.2,0.3,0.5,0.4,0.8c0,0.3,0,0.7-0.1,1c-0.1,0.4-0.3,0.7-0.6,1c-0.3,0.3-0.6,0.6-1,0.8
	c-0.4,0.2-0.8,0.4-1.2,0.6c-0.4,0.1-0.9,0.2-1.3,0.2c-0.4,0-0.8-0.1-1.1-0.2c-0.3-0.1-0.6-0.3-0.8-0.6c-0.2-0.2-0.3-0.5-0.4-0.9
	C177.6,107.2,177.6,106.8,177.8,106.5z"/>
<line fill="none" stroke="#000000" stroke-width="0.72" stroke-miterlimit="10" x1="177.9" y1="107.3" x2="177.9" y2="128.2"/>
<polyline fill-rule="evenodd" clip-rule="evenodd" points="150.9,129.5 178.3,126.9 178.3,129.5 150.9,132.1 "/>
<line fill="none" stroke="#000000" stroke-width="0.72" stroke-miterlimit="10" x1="210.6" y1="102.1" x2="210.6" y2="132.1"/>
<path d="M210.4,101.3c0.1-0.4,0.3-0.7,0.6-1c0.3-0.3,0.6-0.6,1-0.8c0.4-0.2,0.8-0.4,1.2-0.6c0.4-0.1,0.9-0.2,1.3-0.2
	c0.4,0,0.8,0.1,1.1,0.2s0.6,0.3,0.8,0.6c0.2,0.2,0.3,0.5,0.4,0.8c0,0.3,0,0.7-0.1,1c-0.1,0.4-0.3,0.7-0.6,1c-0.3,0.3-0.6,0.6-1,0.8
	c-0.4,0.2-0.8,0.4-1.2,0.6c-0.4,0.1-0.9,0.2-1.3,0.2c-0.4,0-0.8-0.1-1.1-0.2c-0.3-0.1-0.6-0.3-0.8-0.6c-0.2-0.2-0.3-0.5-0.4-0.9
	C210.2,102,210.3,101.7,210.4,101.3z"/>
<path d="M204.7,103.9c0.1-0.4,0.3-0.7,0.6-1c0.3-0.3,0.6-0.6,1-0.8c0.4-0.2,0.8-0.4,1.2-0.6c0.4-0.1,0.9-0.2,1.3-0.2
	c0.4,0,0.8,0.1,1.1,0.2s0.6,0.3,0.8,0.6c0.2,0.2,0.3,0.5,0.4,0.8c0,0.3,0,0.7-0.1,1c-0.1,0.4-0.3,0.7-0.6,1c-0.3,0.3-0.6,0.6-1,0.8
	c-0.4,0.2-0.8,0.4-1.2,0.6c-0.4,0.1-0.9,0.2-1.3,0.2c-0.4,0-0.8-0.1-1.1-0.2c-0.3-0.1-0.6-0.3-0.8-0.6c-0.2-0.2-0.3-0.5-0.4-0.9
	C204.5,104.6,204.5,104.2,204.7,103.9z"/>
<path d="M210.4,114.1c0.1-0.4,0.3-0.7,0.6-1c0.3-0.3,0.6-0.6,1-0.8c0.4-0.2,0.8-0.4,1.2-0.6c0.4-0.1,0.9-0.2,1.3-0.2
	c0.4,0,0.8,0.1,1.1,0.2s0.6,0.3,0.8,0.6c0.2,0.2,0.3,0.5,0.4,0.8c0,0.3,0,0.7-0.1,1c-0.1,0.4-0.3,0.7-0.6,1c-0.3,0.3-0.6,0.6-1,0.8
	c-0.4,0.2-0.8,0.4-1.2,0.6c-0.4,0.1-0.9,0.2-1.3,0.2c-0.4,0-0.8-0.1-1.1-0.2c-0.3-0.1-0.6-0.3-0.8-0.6c-0.2-0.2-0.3-0.5-0.4-0.9
	C210.2,114.9,210.3,114.5,210.4,114.1z"/>
<path d="M202.1,97.3V109h-0.5v-4.4l-2.9,0.7V93.5h0.5V98L202.1,97.3z M199.2,100v3.2l2.3-0.6v-3.2L199.2,100z"/>
<path d="M193.3,106.9v3.6v1.3c0.2-0.2,0.4-0.3,0.5-0.4c0.2-0.1,0.3-0.2,0.5-0.3c0.2-0.1,0.3-0.1,0.5-0.1c0.2,0,0.4,0,0.6,0
	c0.3,0,0.5,0.1,0.7,0.2c0.2,0.1,0.4,0.3,0.5,0.4c0.2,0.2,0.3,0.4,0.3,0.6c0.1,0.2,0.1,0.4,0.1,0.6c0,0.2,0,0.4-0.1,0.6
	c-0.1,0.2-0.1,0.4-0.2,0.6c-0.1,0.2-0.2,0.4-0.5,0.6c-0.2,0.2-0.4,0.3-0.6,0.5c-0.1,0.1-0.2,0.2-0.3,0.3c-0.2,0.1-0.4,0.3-0.6,0.5
	c-0.2,0.2-0.5,0.3-0.7,0.5c-0.2,0.2-0.5,0.3-0.7,0.5c-0.2,0.1-0.4,0.3-0.7,0.5v-12.1h0.5V106.9z M195,112.3L195,112.3
	c-0.1-0.1-0.2-0.2-0.3-0.2c-0.1-0.1-0.2-0.1-0.4-0.1c-0.1,0-0.3,0-0.4,0.1c-0.1,0.1-0.3,0.2-0.4,0.4c-0.1,0.3-0.2,0.6-0.2,1
	c0,0.4,0,0.7,0,1.1v1.8c0.2-0.1,0.3-0.2,0.4-0.3c0.1-0.1,0.2-0.2,0.4-0.3c0.1-0.1,0.2-0.2,0.4-0.3c0.2-0.2,0.4-0.4,0.5-0.6
	c0.1-0.2,0.2-0.5,0.3-0.8c0.1-0.3,0.1-0.6,0.1-0.9C195.3,112.7,195.2,112.5,195,112.3z"/>
<path d="M187.3,96.6v3.6v1.3c0.2-0.2,0.4-0.3,0.5-0.4c0.2-0.1,0.3-0.2,0.5-0.3c0.2-0.1,0.3-0.1,0.5-0.1c0.2,0,0.4,0,0.6,0
	c0.3,0,0.5,0.1,0.7,0.2c0.2,0.1,0.4,0.3,0.5,0.4c0.2,0.2,0.3,0.4,0.3,0.6c0.1,0.2,0.1,0.4,0.1,0.6c0,0.2,0,0.4-0.1,0.6
	c-0.1,0.2-0.1,0.4-0.2,0.6c-0.1,0.2-0.2,0.4-0.5,0.6c-0.2,0.2-0.4,0.3-0.6,0.5c-0.1,0.1-0.2,0.2-0.3,0.3c-0.2,0.1-0.4,0.3-0.6,0.5
	c-0.2,0.2-0.5,0.3-0.7,0.5c-0.2,0.2-0.5,0.3-0.7,0.5c-0.2,0.1-0.4,0.3-0.7,0.5V95h0.5V96.6z M189,102L189,102
	c-0.1-0.1-0.2-0.2-0.3-0.2c-0.1-0.1-0.2-0.1-0.4-0.1c-0.1,0-0.3,0-0.4,0.1c-0.1,0.1-0.3,0.2-0.4,0.4c-0.1,0.3-0.2,0.6-0.2,1
	c0,0.4,0,0.7,0,1.1v1.8c0.2-0.1,0.3-0.2,0.4-0.3c0.1-0.1,0.2-0.2,0.4-0.3c0.1-0.1,0.2-0.2,0.4-0.3c0.2-0.2,0.4-0.4,0.5-0.6
	c0.1-0.2,0.2-0.5,0.3-0.8c0.1-0.3,0.1-0.6,0.1-0.9C189.3,102.5,189.2,102.2,189,102z"/>
<path d="M219.5,93.6c-0.3-1.1-0.7-1.9-1.2-2.5c-0.5-0.6-1-1.1-1.6-1.4c-0.6-0.3-1.1-0.5-1.7-0.6c-0.6-0.1-1-0.1-1.5-0.1
	c-0.4,0-0.9,0-1.5,0.1c-0.6,0.1-1.1,0.3-1.7,0.6c-0.6,0.3-1.1,0.8-1.6,1.4c-0.5,0.6-0.9,1.4-1.2,2.5h-0.3c0-0.5,0.1-1.1,0.2-1.6
	c0.2-0.6,0.4-1.1,0.6-1.6c0.3-0.5,0.6-1,1-1.5c0.4-0.5,0.8-0.9,1.3-1.2c0.5-0.3,0.9-0.6,1.5-0.8c0.5-0.2,1.1-0.3,1.7-0.3
	c0.6,0,1.1,0.1,1.6,0.3c0.5,0.2,1,0.5,1.5,0.8c0.5,0.3,0.9,0.8,1.3,1.2c0.4,0.5,0.7,1,1,1.5c0.3,0.5,0.5,1.1,0.6,1.6
	c0.2,0.6,0.2,1.1,0.2,1.6H219.5z M215,92.6c0,0.4-0.1,0.7-0.4,1c-0.3,0.3-0.6,0.4-1,0.4c-0.4,0-0.7-0.1-1-0.4
	c-0.3-0.3-0.4-0.6-0.4-1c0-0.4,0.1-0.7,0.4-1c0.3-0.3,0.6-0.4,1-0.4c0.4,0,0.7,0.1,1,0.4C214.8,91.9,215,92.3,215,92.6z"/>
<line fill="none" stroke="#000000" stroke-width="0.72" stroke-miterlimit="10" x1="249.3" y1="46.6" x2="249.3" y2="27"/>
<text transform="matrix(1 0 0 1 242.96 39.7728)" font-family="'Maestro'" font-size="20.52"></text>
<text transform="matrix(1 0 0 1 242.96 47.4476)" font-family="'Maestro'" font-size="20.52"></text>
<line fill="none" stroke="#000000" stroke-width="0.72" stroke-miterlimit="10" x1="312.3" y1="46.6" x2="312.3" y2="27"/>
<path d="M306.3,39.8c0.1-0.4,0.3-0.7,0.6-1c0.3-0.3,0.6-0.6,1-0.8c0.4-0.2,0.8-0.4,1.2-0.6c0.4-0.1,0.9-0.2,1.3-0.2
	c0.4,0,0.8,0.1,1.1,0.2s0.6,0.3,0.8,0.6c0.2,0.2,0.3,0.5,0.4,0.8c0,0.3,0,0.7-0.1,1c-0.1,0.4-0.3,0.7-0.6,1c-0.3,0.3-0.6,0.6-1,0.8
	c-0.4,0.2-0.8,0.4-1.2,0.6c-0.4,0.1-0.9,0.2-1.3,0.2c-0.4,0-0.8-0.1-1.1-0.2c-0.3-0.1-0.6-0.3-0.8-0.6c-0.2-0.2-0.3-0.5-0.4-0.9
	C306.1,40.5,306.2,40.2,306.3,39.8z"/>
<path d="M306.3,47.5c0.1-0.4,0.3-0.7,0.6-1c0.3-0.3,0.6-0.6,1-0.8c0.4-0.2,0.8-0.4,1.2-0.6c0.4-0.1,0.9-0.2,1.3-0.2
	c0.4,0,0.8,0.1,1.1,0.2s0.6,0.3,0.8,0.6c0.2,0.2,0.3,0.5,0.4,0.8c0,0.3,0,0.7-0.1,1c-0.1,0.4-0.3,0.7-0.6,1c-0.3,0.3-0.6,0.6-1,0.8
	c-0.4,0.2-0.8,0.4-1.2,0.6c-0.4,0.1-0.9,0.2-1.3,0.2c-0.4,0-0.8-0.1-1.1-0.2c-0.3-0.1-0.6-0.3-0.8-0.6c-0.2-0.2-0.3-0.5-0.4-0.9
	C306.1,48.2,306.2,47.8,306.3,47.5z"/>
<line fill="none" stroke="#000000" stroke-width="0.72" stroke-miterlimit="10" x1="354.4" y1="44" x2="354.4" y2="27"/>
<path d="M348.4,39.8c0.1-0.4,0.3-0.7,0.6-1c0.3-0.3,0.6-0.6,1-0.8c0.4-0.2,0.8-0.4,1.2-0.6c0.4-0.1,0.9-0.2,1.3-0.2
	c0.4,0,0.8,0.1,1.1,0.2s0.6,0.3,0.8,0.6c0.2,0.2,0.3,0.5,0.4,0.8c0,0.3,0,0.7-0.1,1c-0.1,0.4-0.3,0.7-0.6,1c-0.3,0.3-0.6,0.6-1,0.8
	c-0.4,0.2-0.8,0.4-1.2,0.6c-0.4,0.1-0.9,0.2-1.3,0.2c-0.4,0-0.8-0.1-1.1-0.2c-0.3-0.1-0.6-0.3-0.8-0.6c-0.2-0.2-0.3-0.5-0.4-0.9
	C348.2,40.5,348.3,40.2,348.4,39.8z"/>
<path d="M342.8,37.7v3.6v1.3c0.2-0.2,0.4-0.3,0.5-0.4c0.2-0.1,0.3-0.2,0.5-0.3c0.2-0.1,0.3-0.1,0.5-0.1c0.2,0,0.4,0,0.6,0
	c0.3,0,0.5,0.1,0.7,0.2c0.2,0.1,0.4,0.3,0.5,0.4c0.2,0.2,0.3,0.4,0.3,0.6c0.1,0.2,0.1,0.4,0.1,0.6c0,0.2,0,0.4-0.1,0.6
	c-0.1,0.2-0.1,0.4-0.2,0.6c-0.1,0.2-0.2,0.4-0.5,0.6c-0.2,0.2-0.4,0.3-0.6,0.5c-0.1,0.1-0.2,0.2-0.3,0.3c-0.2,0.1-0.4,0.3-0.6,0.5
	c-0.2,0.2-0.5,0.3-0.7,0.5c-0.2,0.2-0.5,0.3-0.7,0.5c-0.2,0.1-0.4,0.3-0.7,0.5V36.1h0.5V37.7z M344.5,43.1L344.5,43.1
	c-0.1-0.1-0.2-0.2-0.3-0.2c-0.1-0.1-0.2-0.1-0.4-0.1c-0.1,0-0.3,0-0.4,0.1c-0.1,0.1-0.3,0.2-0.4,0.4c-0.1,0.3-0.2,0.6-0.2,1
	c0,0.4,0,0.7,0,1.1v1.8c0.2-0.1,0.3-0.2,0.4-0.3c0.1-0.1,0.2-0.2,0.4-0.3c0.1-0.1,0.2-0.2,0.4-0.3c0.2-0.2,0.4-0.4,0.5-0.6
	c0.1-0.2,0.2-0.5,0.3-0.8c0.1-0.3,0.1-0.6,0.1-0.9C344.8,43.6,344.7,43.3,344.5,43.1z M348.4,45c0.1-0.4,0.3-0.7,0.6-1
	c0.3-0.3,0.6-0.6,1-0.8c0.4-0.2,0.8-0.4,1.2-0.6c0.4-0.1,0.9-0.2,1.3-0.2c0.4,0,0.8,0.1,1.1,0.2s0.6,0.3,0.8,0.6
	c0.2,0.2,0.3,0.5,0.4,0.8c0,0.3,0,0.7-0.1,1c-0.1,0.4-0.3,0.7-0.6,1c-0.3,0.3-0.6,0.6-1,0.8c-0.4,0.2-0.8,0.4-1.2,0.6
	c-0.4,0.1-0.9,0.2-1.3,0.2c-0.4,0-0.8-0.1-1.1-0.2c-0.3-0.1-0.6-0.3-0.8-0.6c-0.2-0.2-0.3-0.5-0.4-0.9
	C348.2,45.7,348.3,45.3,348.4,45z"/>
<path d="M376.2,23.6c-0.3-1.1-0.7-1.9-1.2-2.5c-0.5-0.6-1-1.1-1.6-1.4c-0.6-0.3-1.1-0.5-1.7-0.6c-0.6-0.1-1-0.1-1.5-0.1
	c-0.4,0-0.9,0-1.5,0.1c-0.6,0.1-1.1,0.3-1.7,0.6c-0.6,0.3-1.1,0.8-1.6,1.4c-0.5,0.6-0.9,1.4-1.2,2.5h-0.3c0-0.5,0.1-1.1,0.2-1.6
	c0.2-0.6,0.4-1.1,0.6-1.6c0.3-0.5,0.6-1,1-1.5c0.4-0.5,0.8-0.9,1.3-1.2c0.5-0.3,0.9-0.6,1.5-0.8c0.5-0.2,1.1-0.3,1.7-0.3
	c0.6,0,1.1,0.1,1.6,0.3c0.5,0.2,1,0.5,1.5,0.8c0.5,0.3,0.9,0.8,1.3,1.2c0.4,0.5,0.7,1,1,1.5c0.3,0.5,0.5,1.1,0.6,1.6
	c0.2,0.6,0.2,1.1,0.2,1.6H376.2z M371.7,22.6c0,0.4-0.1,0.7-0.4,1c-0.3,0.3-0.6,0.4-1,0.4c-0.4,0-0.7-0.1-1-0.4
	c-0.3-0.3-0.4-0.6-0.4-1c0-0.4,0.1-0.7,0.4-1c0.3-0.3,0.6-0.4,1-0.4c0.4,0,0.7,0.1,1,0.4C371.5,21.9,371.7,22.2,371.7,22.6z"/>
<path d="M248.9,50.1c0.1-0.4,0.3-0.7,0.6-1c0.3-0.3,0.6-0.6,1-0.8c0.4-0.2,0.8-0.4,1.2-0.6c0.4-0.1,0.9-0.2,1.3-0.2
	c0.4,0,0.8,0.1,1.1,0.2s0.6,0.3,0.8,0.6c0.2,0.2,0.3,0.5,0.4,0.8c0,0.3,0,0.7-0.1,1c-0.1,0.4-0.3,0.7-0.6,1c-0.3,0.3-0.6,0.6-1,0.8
	c-0.4,0.2-0.8,0.4-1.2,0.6c-0.4,0.1-0.9,0.2-1.3,0.2c-0.4,0-0.8-0.1-1.1-0.2c-0.3-0.1-0.6-0.3-0.8-0.6c-0.2-0.2-0.3-0.5-0.4-0.9
	C248.7,50.8,248.7,50.4,248.9,50.1z"/>
<line fill="none" stroke="#000000" stroke-width="0.72" stroke-miterlimit="10" x1="249" y1="50.9" x2="249" y2="71.8"/>
<path d="M260.6,52.6c0.1-0.4,0.3-0.7,0.6-1c0.3-0.3,0.6-0.6,1-0.8c0.4-0.2,0.8-0.4,1.2-0.6c0.4-0.1,0.9-0.2,1.3-0.2
	c0.4,0,0.8,0.1,1.1,0.2s0.6,0.3,0.8,0.6c0.2,0.2,0.3,0.5,0.4,0.8c0,0.3,0,0.7-0.1,1c-0.1,0.4-0.3,0.7-0.6,1c-0.3,0.3-0.6,0.6-1,0.8
	c-0.4,0.2-0.8,0.4-1.2,0.6c-0.4,0.1-0.9,0.2-1.3,0.2c-0.4,0-0.8-0.1-1.1-0.2c-0.3-0.1-0.6-0.3-0.8-0.6c-0.2-0.2-0.3-0.5-0.4-0.9
	C260.5,53.3,260.5,53,260.6,52.6z"/>
<line fill="none" stroke="#000000" stroke-width="0.72" stroke-miterlimit="10" x1="260.8" y1="53.5" x2="260.8" y2="72.5"/>
<path d="M275.8,55.2c0.1-0.4,0.3-0.7,0.6-1c0.3-0.3,0.6-0.6,1-0.8c0.4-0.2,0.8-0.4,1.2-0.6c0.4-0.1,0.9-0.2,1.3-0.2
	c0.4,0,0.8,0.1,1.1,0.2s0.6,0.3,0.8,0.6c0.2,0.2,0.3,0.5,0.4,0.8c0,0.3,0,0.7-0.1,1c-0.1,0.4-0.3,0.7-0.6,1c-0.3,0.3-0.6,0.6-1,0.8
	c-0.4,0.2-0.8,0.4-1.2,0.6c-0.4,0.1-0.9,0.2-1.3,0.2c-0.4,0-0.8-0.1-1.1-0.2c-0.3-0.1-0.6-0.3-0.8-0.6c-0.2-0.2-0.3-0.5-0.4-0.9
	C275.6,55.9,275.7,55.5,275.8,55.2z"/>
<line fill="none" stroke="#000000" stroke-width="0.72" stroke-miterlimit="10" x1="276" y1="56" x2="276" y2="73.4"/>
<path d="M291.2,57.7c0.1-0.4,0.3-0.7,0.6-1c0.3-0.3,0.6-0.6,1-0.8c0.4-0.2,0.8-0.4,1.2-0.6c0.4-0.1,0.9-0.2,1.3-0.2
	c0.4,0,0.8,0.1,1.1,0.2s0.6,0.3,0.8,0.6c0.2,0.2,0.3,0.5,0.4,0.8c0,0.3,0,0.7-0.1,1c-0.1,0.4-0.3,0.7-0.6,1c-0.3,0.3-0.6,0.6-1,0.8
	c-0.4,0.2-0.8,0.4-1.2,0.6c-0.4,0.1-0.9,0.2-1.3,0.2c-0.4,0-0.8-0.1-1.1-0.2c-0.3-0.1-0.6-0.3-0.8-0.6c-0.2-0.2-0.3-0.5-0.4-0.9
	C291,58.4,291,58.1,291.2,57.7z"/>
<line fill="none" stroke="#000000" stroke-width="0.72" stroke-miterlimit="10" x1="291.3" y1="58.6" x2="291.3" y2="74.4"/>
<polyline fill-rule="evenodd" clip-rule="evenodd" points="248.7,70.6 291.7,73.1 291.7,75.7 248.7,73.1 "/>
<path d="M312.1,50.1c0.1-0.4,0.3-0.7,0.6-1c0.3-0.3,0.6-0.6,1-0.8c0.4-0.2,0.8-0.4,1.2-0.6c0.4-0.1,0.9-0.2,1.3-0.2
	c0.4,0,0.8,0.1,1.1,0.2s0.6,0.3,0.8,0.6c0.2,0.2,0.3,0.5,0.4,0.8c0,0.3,0,0.7-0.1,1c-0.1,0.4-0.3,0.7-0.6,1c-0.3,0.3-0.6,0.6-1,0.8
	c-0.4,0.2-0.8,0.4-1.2,0.6c-0.4,0.1-0.9,0.2-1.3,0.2c-0.4,0-0.8-0.1-1.1-0.2c-0.3-0.1-0.6-0.3-0.8-0.6c-0.2-0.2-0.3-0.5-0.4-0.9
	C311.9,50.8,312,50.4,312.1,50.1z"/>
<line fill="none" stroke="#000000" stroke-width="0.72" stroke-miterlimit="10" x1="312.3" y1="50.9" x2="312.3" y2="66.7"/>
<path d="M321.7,45.3V49v1.3c0.2-0.2,0.4-0.3,0.5-0.4c0.2-0.1,0.3-0.2,0.5-0.3c0.2-0.1,0.3-0.1,0.5-0.1c0.2,0,0.4,0,0.6,0
	c0.3,0,0.5,0.1,0.7,0.2c0.2,0.1,0.4,0.3,0.5,0.4c0.2,0.2,0.3,0.4,0.3,0.6c0.1,0.2,0.1,0.4,0.1,0.6c0,0.2,0,0.4-0.1,0.6
	c-0.1,0.2-0.1,0.4-0.2,0.6c-0.1,0.2-0.2,0.4-0.5,0.6c-0.2,0.2-0.4,0.3-0.6,0.5c-0.1,0.1-0.2,0.2-0.3,0.3c-0.2,0.1-0.4,0.3-0.6,0.5
	c-0.2,0.2-0.5,0.3-0.7,0.5c-0.2,0.2-0.5,0.3-0.7,0.5c-0.2,0.1-0.4,0.3-0.7,0.5V43.7h0.5V45.3z M323.3,50.7L323.3,50.7
	c-0.1-0.1-0.2-0.2-0.3-0.2c-0.1-0.1-0.2-0.1-0.4-0.1c-0.1,0-0.3,0-0.4,0.1c-0.1,0.1-0.3,0.2-0.4,0.4c-0.1,0.3-0.2,0.6-0.2,1
	c0,0.4,0,0.7,0,1.1v1.8c0.2-0.1,0.3-0.2,0.4-0.3c0.1-0.1,0.2-0.2,0.4-0.3c0.1-0.1,0.2-0.2,0.4-0.3c0.2-0.2,0.4-0.4,0.5-0.6
	c0.1-0.2,0.2-0.5,0.3-0.8c0.1-0.3,0.1-0.6,0.1-0.9C323.6,51.2,323.5,51,323.3,50.7z M327.2,52.6c0.1-0.4,0.3-0.7,0.6-1
	c0.3-0.3,0.6-0.6,1-0.8c0.4-0.2,0.8-0.4,1.2-0.6c0.4-0.1,0.9-0.2,1.3-0.2c0.4,0,0.8,0.1,1.1,0.2s0.6,0.3,0.8,0.6
	c0.2,0.2,0.3,0.5,0.4,0.8c0,0.3,0,0.7-0.1,1c-0.1,0.4-0.3,0.7-0.6,1c-0.3,0.3-0.6,0.6-1,0.8c-0.4,0.2-0.8,0.4-1.2,0.6
	c-0.4,0.1-0.9,0.2-1.3,0.2c-0.4,0-0.8-0.1-1.1-0.2c-0.3-0.1-0.6-0.3-0.8-0.6c-0.2-0.2-0.3-0.5-0.4-0.9
	C327.1,53.3,327.1,53,327.2,52.6z"/>
<line fill="none" stroke="#000000" stroke-width="0.72" stroke-miterlimit="10" x1="327.4" y1="53.5" x2="327.4" y2="69.2"/>
<polyline fill-rule="evenodd" clip-rule="evenodd" points="312,65.4 327.8,68 327.8,70.6 312,68 "/>
<path d="M354,57.7c-0.1,0.5-0.2,1.1-0.4,1.7s-0.5,1.3-0.9,2c-0.4,0.7-0.9,1.4-1.3,2.1c-0.5,0.7-0.9,1.3-1.3,1.9
	c-0.3,0.5-0.7,1-1,1.6c-0.3,0.6-0.4,1.2-0.4,1.8h-0.4v-5.5h0.4c0.2,0,0.4-0.1,0.7-0.1c0.2-0.1,0.4-0.1,0.7-0.2
	c0.3-0.1,0.5-0.2,0.8-0.4c0.2-0.1,0.4-0.3,0.6-0.5c0.2-0.2,0.5-0.5,0.7-0.8c0.2-0.3,0.5-0.7,0.7-1.1c0.2-0.4,0.4-0.9,0.6-1.4
	c0.2-0.6,0.3-1.1,0.3-1.5c0-0.4,0.1-0.9,0-1.5c0-0.3,0-0.6-0.1-1c-0.1-0.3-0.1-0.7-0.2-1c-0.1-0.3-0.2-0.6-0.3-0.9
	c-0.1-0.3-0.2-0.6-0.3-0.8l0.2-0.1c0.2,0.3,0.4,0.6,0.5,1c0.2,0.4,0.3,0.9,0.4,1.3c0.1,0.5,0.2,1,0.2,1.6
	C354.1,56.5,354.1,57.1,354,57.7z"/>
<line fill="none" stroke="#000000" stroke-width="0.72" stroke-miterlimit="10" x1="348.6" y1="50.9" x2="348.6" y2="68"/>
<path d="M336.8,42.8v3.6v1.3c0.2-0.2,0.4-0.3,0.5-0.4c0.2-0.1,0.3-0.2,0.5-0.3c0.2-0.1,0.3-0.1,0.5-0.1c0.2,0,0.4,0,0.6,0
	c0.3,0,0.5,0.1,0.7,0.2c0.2,0.1,0.4,0.3,0.5,0.4c0.2,0.2,0.3,0.4,0.3,0.6c0.1,0.2,0.1,0.4,0.1,0.6c0,0.2,0,0.4-0.1,0.6
	c-0.1,0.2-0.1,0.4-0.2,0.6c-0.1,0.2-0.2,0.4-0.5,0.6c-0.2,0.2-0.4,0.3-0.6,0.5c-0.1,0.1-0.2,0.2-0.3,0.3c-0.2,0.1-0.4,0.3-0.6,0.5
	c-0.2,0.2-0.5,0.3-0.7,0.5c-0.2,0.2-0.5,0.3-0.7,0.5c-0.2,0.1-0.4,0.3-0.7,0.5V41.1h0.5V42.8z M338.5,48.2L338.5,48.2
	c-0.1-0.1-0.2-0.2-0.3-0.2c-0.1-0.1-0.2-0.1-0.4-0.1c-0.1,0-0.3,0-0.4,0.1c-0.1,0.1-0.3,0.2-0.4,0.4c-0.1,0.3-0.2,0.6-0.2,1
	c0,0.4,0,0.7,0,1.1v1.8c0.2-0.1,0.3-0.2,0.4-0.3c0.1-0.1,0.2-0.2,0.4-0.3c0.1-0.1,0.2-0.2,0.4-0.3c0.2-0.2,0.4-0.4,0.5-0.6
	c0.1-0.2,0.2-0.5,0.3-0.8c0.1-0.3,0.1-0.6,0.1-0.9C338.8,48.6,338.6,48.4,338.5,48.2z M348.4,50.1c0.1-0.4,0.3-0.7,0.6-1
	c0.3-0.3,0.6-0.6,1-0.8c0.4-0.2,0.8-0.4,1.2-0.6c0.4-0.1,0.9-0.2,1.3-0.2c0.4,0,0.8,0.1,1.1,0.2s0.6,0.3,0.8,0.6
	c0.2,0.2,0.3,0.5,0.4,0.8c0,0.3,0,0.7-0.1,1c-0.1,0.4-0.3,0.7-0.6,1c-0.3,0.3-0.6,0.6-1,0.8c-0.4,0.2-0.8,0.4-1.2,0.6
	c-0.4,0.1-0.9,0.2-1.3,0.2c-0.4,0-0.8-0.1-1.1-0.2c-0.3-0.1-0.6-0.3-0.8-0.6c-0.2-0.2-0.3-0.5-0.4-0.9
	C348.2,50.8,348.3,50.4,348.4,50.1z"/>
<path d="M369.4,85.8c-0.1,0.5-0.2,1.1-0.4,1.7s-0.5,1.3-0.9,2c-0.4,0.7-0.9,1.4-1.3,2.1c-0.5,0.7-0.9,1.3-1.3,1.9
	c-0.3,0.5-0.7,1-1,1.6c-0.3,0.6-0.4,1.2-0.4,1.8h-0.4v-5.5h0.4c0.2,0,0.4-0.1,0.7-0.1c0.2-0.1,0.4-0.1,0.7-0.2
	c0.3-0.1,0.5-0.2,0.8-0.4c0.2-0.1,0.4-0.3,0.6-0.5c0.2-0.2,0.5-0.5,0.7-0.8c0.2-0.3,0.5-0.7,0.7-1.1c0.2-0.4,0.4-0.9,0.6-1.4
	c0.2-0.6,0.3-1.1,0.3-1.5c0-0.4,0.1-0.9,0-1.5c0-0.3,0-0.6-0.1-1c-0.1-0.3-0.1-0.7-0.2-1c-0.1-0.3-0.2-0.6-0.3-0.9
	c-0.1-0.3-0.2-0.6-0.3-0.8l0.2-0.1c0.2,0.3,0.4,0.6,0.5,1c0.2,0.4,0.3,0.9,0.4,1.3c0.1,0.5,0.2,1,0.2,1.6
	C369.5,84.6,369.5,85.2,369.4,85.8z"/>
<line fill="none" stroke="#000000" stroke-width="0.72" stroke-miterlimit="10" x1="363.9" y1="79.1" x2="363.9" y2="96.2"/>
<line fill="none" stroke="#000000" stroke-width="0.72" stroke-miterlimit="10" x1="362.3" y1="78.2" x2="371.5" y2="78.2"/>
<line fill="none" stroke="#000000" stroke-width="0.72" stroke-miterlimit="10" x1="362.3" y1="73.1" x2="371.5" y2="73.1"/>
<line fill="none" stroke="#000000" stroke-width="0.72" stroke-miterlimit="10" x1="362.3" y1="68" x2="371.5" y2="68"/>
<path d="M363.8,78.3c0.1-0.4,0.3-0.7,0.6-1c0.3-0.3,0.6-0.6,1-0.8c0.4-0.2,0.8-0.4,1.2-0.6c0.4-0.1,0.9-0.2,1.3-0.2
	c0.4,0,0.8,0.1,1.1,0.2s0.6,0.3,0.8,0.6c0.2,0.2,0.3,0.5,0.4,0.8c0,0.3,0,0.7-0.1,1c-0.1,0.4-0.3,0.7-0.6,1c-0.3,0.3-0.6,0.6-1,0.8
	c-0.4,0.2-0.8,0.4-1.2,0.6c-0.4,0.1-0.9,0.2-1.3,0.2c-0.4,0-0.8-0.1-1.1-0.2c-0.3-0.1-0.6-0.3-0.8-0.6c-0.2-0.2-0.3-0.5-0.4-0.9
	C363.6,79,363.6,78.6,363.8,78.3z"/>
<line fill="none" stroke="#000000" stroke-width="0.72" stroke-miterlimit="10" x1="249.1" y1="133.7" x2="249.1" y2="98.7"/>
<path d="M243.1,111.6c0.1-0.4,0.3-0.7,0.6-1c0.3-0.3,0.6-0.6,1-0.8c0.4-0.2,0.8-0.4,1.2-0.6c0.4-0.1,0.9-0.2,1.3-0.2
	c0.4,0,0.8,0.1,1.1,0.2s0.6,0.3,0.8,0.6c0.2,0.2,0.3,0.5,0.4,0.8c0,0.3,0,0.7-0.1,1c-0.1,0.4-0.3,0.7-0.6,1c-0.3,0.3-0.6,0.6-1,0.8
	c-0.4,0.2-0.8,0.4-1.2,0.6c-0.4,0.1-0.9,0.2-1.3,0.2c-0.4,0-0.8-0.1-1.1-0.2c-0.3-0.1-0.6-0.3-0.8-0.6c-0.2-0.2-0.3-0.5-0.4-0.9
	C242.9,112.3,243,111.9,243.1,111.6z"/>
<path d="M243.1,124.4c0.1-0.4,0.3-0.7,0.6-1c0.3-0.3,0.6-0.6,1-0.8c0.4-0.2,0.8-0.4,1.2-0.6c0.4-0.1,0.9-0.2,1.3-0.2
	c0.4,0,0.8,0.1,1.1,0.2s0.6,0.3,0.8,0.6c0.2,0.2,0.3,0.5,0.4,0.8c0,0.3,0,0.7-0.1,1c-0.1,0.4-0.3,0.7-0.6,1c-0.3,0.3-0.6,0.6-1,0.8
	c-0.4,0.2-0.8,0.4-1.2,0.6c-0.4,0.1-0.9,0.2-1.3,0.2c-0.4,0-0.8-0.1-1.1-0.2c-0.3-0.1-0.6-0.3-0.8-0.6c-0.2-0.2-0.3-0.5-0.4-0.9
	C242.9,125.1,243,124.8,243.1,124.4z"/>
<line fill="none" stroke="#000000" stroke-width="0.72" stroke-miterlimit="10" x1="241.7" y1="129.5" x2="250.9" y2="129.5"/>
<path d="M243.1,134.6c0.1-0.4,0.3-0.7,0.6-1c0.3-0.3,0.6-0.6,1-0.8c0.4-0.2,0.8-0.4,1.2-0.6c0.4-0.1,0.9-0.2,1.3-0.2
	c0.4,0,0.8,0.1,1.1,0.2s0.6,0.3,0.8,0.6c0.2,0.2,0.3,0.5,0.4,0.8c0,0.3,0,0.7-0.1,1c-0.1,0.4-0.3,0.7-0.6,1c-0.3,0.3-0.6,0.6-1,0.8
	c-0.4,0.2-0.8,0.4-1.2,0.6c-0.4,0.1-0.9,0.2-1.3,0.2c-0.4,0-0.8-0.1-1.1-0.2c-0.3-0.1-0.6-0.3-0.8-0.6c-0.2-0.2-0.3-0.5-0.4-0.9
	C242.9,135.3,243,135,243.1,134.6z"/>
<line fill="none" stroke="#000000" stroke-width="0.72" stroke-miterlimit="10" x1="276" y1="89.3" x2="276" y2="114.1"/>
<line fill="none" stroke="#000000" stroke-width="0.72" stroke-miterlimit="10" x1="274.3" y1="98.7" x2="283.5" y2="98.7"/>
<line fill="none" stroke="#000000" stroke-width="0.72" stroke-miterlimit="10" x1="274.3" y1="93.6" x2="283.5" y2="93.6"/>
<line fill="none" stroke="#000000" stroke-width="0.72" stroke-miterlimit="10" x1="274.3" y1="88.5" x2="283.5" y2="88.5"/>
<path d="M275.8,88.5c0.1-0.4,0.3-0.7,0.6-1c0.3-0.3,0.6-0.6,1-0.8c0.4-0.2,0.8-0.4,1.2-0.6c0.4-0.1,0.9-0.2,1.3-0.2
	c0.4,0,0.8,0.1,1.1,0.2s0.6,0.3,0.8,0.6c0.2,0.2,0.3,0.5,0.4,0.8c0,0.3,0,0.7-0.1,1c-0.1,0.4-0.3,0.7-0.6,1c-0.3,0.3-0.6,0.6-1,0.8
	c-0.4,0.2-0.8,0.4-1.2,0.6c-0.4,0.1-0.9,0.2-1.3,0.2c-0.4,0-0.8-0.1-1.1-0.2c-0.3-0.1-0.6-0.3-0.8-0.6c-0.2-0.2-0.3-0.5-0.4-0.9
	C275.6,89.2,275.7,88.9,275.8,88.5z"/>
<line fill="none" stroke="#000000" stroke-width="0.72" stroke-miterlimit="10" x1="274.3" y1="98.7" x2="283.5" y2="98.7"/>
<line fill="none" stroke="#000000" stroke-width="0.72" stroke-miterlimit="10" x1="274.3" y1="93.6" x2="283.5" y2="93.6"/>
<path d="M275.8,93.6c0.1-0.4,0.3-0.7,0.6-1c0.3-0.3,0.6-0.6,1-0.8c0.4-0.2,0.8-0.4,1.2-0.6c0.4-0.1,0.9-0.2,1.3-0.2
	c0.4,0,0.8,0.1,1.1,0.2s0.6,0.3,0.8,0.6c0.2,0.2,0.3,0.5,0.4,0.8c0,0.3,0,0.7-0.1,1c-0.1,0.4-0.3,0.7-0.6,1c-0.3,0.3-0.6,0.6-1,0.8
	c-0.4,0.2-0.8,0.4-1.2,0.6c-0.4,0.1-0.9,0.2-1.3,0.2c-0.4,0-0.8-0.1-1.1-0.2c-0.3-0.1-0.6-0.3-0.8-0.6c-0.2-0.2-0.3-0.5-0.4-0.9
	C275.6,94.3,275.7,94,275.8,93.6z"/>
<line fill="none" stroke="#000000" stroke-width="0.72" stroke-miterlimit="10" x1="268.6" y1="98.7" x2="277.8" y2="98.7"/>
<path d="M270,96.2c0.1-0.4,0.3-0.7,0.6-1c0.3-0.3,0.6-0.6,1-0.8c0.4-0.2,0.8-0.4,1.2-0.6c0.4-0.1,0.9-0.2,1.3-0.2
	c0.4,0,0.8,0.1,1.1,0.2s0.6,0.3,0.8,0.6c0.2,0.2,0.3,0.5,0.4,0.8c0,0.3,0,0.7-0.1,1c-0.1,0.4-0.3,0.7-0.6,1c-0.3,0.3-0.6,0.6-1,0.8
	c-0.4,0.2-0.8,0.4-1.2,0.6c-0.4,0.1-0.9,0.2-1.3,0.2c-0.4,0-0.8-0.1-1.1-0.2c-0.3-0.1-0.6-0.3-0.8-0.6c-0.2-0.2-0.3-0.5-0.4-0.9
	C269.8,96.9,269.9,96.6,270,96.2z"/>
<line fill="none" stroke="#000000" stroke-width="0.72" stroke-miterlimit="10" x1="306.4" y1="99.6" x2="306.4" y2="132.1"/>
<line fill="none" stroke="#000000" stroke-width="0.72" stroke-miterlimit="10" x1="304.9" y1="98.7" x2="314.1" y2="98.7"/>
<path d="M306.3,98.7c0.1-0.4,0.3-0.7,0.6-1c0.3-0.3,0.6-0.6,1-0.8c0.4-0.2,0.8-0.4,1.2-0.6c0.4-0.1,0.9-0.2,1.3-0.2
	c0.4,0,0.8,0.1,1.1,0.2s0.6,0.3,0.8,0.6c0.2,0.2,0.3,0.5,0.4,0.8c0,0.3,0,0.7-0.1,1c-0.1,0.4-0.3,0.7-0.6,1c-0.3,0.3-0.6,0.6-1,0.8
	c-0.4,0.2-0.8,0.4-1.2,0.6c-0.4,0.1-0.9,0.2-1.3,0.2c-0.4,0-0.8-0.1-1.1-0.2c-0.3-0.1-0.6-0.3-0.8-0.6c-0.2-0.2-0.3-0.5-0.4-0.9
	C306.1,99.4,306.2,99.1,306.3,98.7z"/>
<path d="M306.3,103.9c0.1-0.4,0.3-0.7,0.6-1c0.3-0.3,0.6-0.6,1-0.8c0.4-0.2,0.8-0.4,1.2-0.6c0.4-0.1,0.9-0.2,1.3-0.2
	c0.4,0,0.8,0.1,1.1,0.2s0.6,0.3,0.8,0.6c0.2,0.2,0.3,0.5,0.4,0.8c0,0.3,0,0.7-0.1,1c-0.1,0.4-0.3,0.7-0.6,1c-0.3,0.3-0.6,0.6-1,0.8
	c-0.4,0.2-0.8,0.4-1.2,0.6c-0.4,0.1-0.9,0.2-1.3,0.2c-0.4,0-0.8-0.1-1.1-0.2c-0.3-0.1-0.6-0.3-0.8-0.6c-0.2-0.2-0.3-0.5-0.4-0.9
	C306.1,104.6,306.2,104.3,306.3,103.9z"/>
<path d="M306.3,114.1c0.1-0.4,0.3-0.7,0.6-1c0.3-0.3,0.6-0.6,1-0.8c0.4-0.2,0.8-0.4,1.2-0.6c0.4-0.1,0.9-0.2,1.3-0.2
	c0.4,0,0.8,0.1,1.1,0.2s0.6,0.3,0.8,0.6c0.2,0.2,0.3,0.5,0.4,0.8c0,0.3,0,0.7-0.1,1c-0.1,0.4-0.3,0.7-0.6,1c-0.3,0.3-0.6,0.6-1,0.8
	c-0.4,0.2-0.8,0.4-1.2,0.6c-0.4,0.1-0.9,0.2-1.3,0.2c-0.4,0-0.8-0.1-1.1-0.2c-0.3-0.1-0.6-0.3-0.8-0.6c-0.2-0.2-0.3-0.5-0.4-0.9
	C306.1,114.9,306.2,114.5,306.3,114.1z"/>
<line fill="none" stroke="#000000" stroke-width="0.72" stroke-miterlimit="10" x1="348.6" y1="102.1" x2="348.6" y2="132.1"/>
<path d="M348.4,101.3c0.1-0.4,0.3-0.7,0.6-1c0.3-0.3,0.6-0.6,1-0.8c0.4-0.2,0.8-0.4,1.2-0.6c0.4-0.1,0.9-0.2,1.3-0.2
	c0.4,0,0.8,0.1,1.1,0.2s0.6,0.3,0.8,0.6c0.2,0.2,0.3,0.5,0.4,0.8c0,0.3,0,0.7-0.1,1c-0.1,0.4-0.3,0.7-0.6,1c-0.3,0.3-0.6,0.6-1,0.8
	c-0.4,0.2-0.8,0.4-1.2,0.6c-0.4,0.1-0.9,0.2-1.3,0.2c-0.4,0-0.8-0.1-1.1-0.2c-0.3-0.1-0.6-0.3-0.8-0.6c-0.2-0.2-0.3-0.5-0.4-0.9
	C348.2,102,348.3,101.7,348.4,101.3z"/>
<path d="M342.6,103.9c0.1-0.4,0.3-0.7,0.6-1c0.3-0.3,0.6-0.6,1-0.8c0.4-0.2,0.8-0.4,1.2-0.6c0.4-0.1,0.9-0.2,1.3-0.2
	c0.4,0,0.8,0.1,1.1,0.2s0.6,0.3,0.8,0.6c0.2,0.2,0.3,0.5,0.4,0.8c0,0.3,0,0.7-0.1,1c-0.1,0.4-0.3,0.7-0.6,1c-0.3,0.3-0.6,0.6-1,0.8
	c-0.4,0.2-0.8,0.4-1.2,0.6c-0.4,0.1-0.9,0.2-1.3,0.2c-0.4,0-0.8-0.1-1.1-0.2c-0.3-0.1-0.6-0.3-0.8-0.6c-0.2-0.2-0.3-0.5-0.4-0.9
	C342.4,104.6,342.5,104.2,342.6,103.9z"/>
<path d="M348.4,114.1c0.1-0.4,0.3-0.7,0.6-1c0.3-0.3,0.6-0.6,1-0.8c0.4-0.2,0.8-0.4,1.2-0.6c0.4-0.1,0.9-0.2,1.3-0.2
	c0.4,0,0.8,0.1,1.1,0.2s0.6,0.3,0.8,0.6c0.2,0.2,0.3,0.5,0.4,0.8c0,0.3,0,0.7-0.1,1c-0.1,0.4-0.3,0.7-0.6,1c-0.3,0.3-0.6,0.6-1,0.8
	c-0.4,0.2-0.8,0.4-1.2,0.6c-0.4,0.1-0.9,0.2-1.3,0.2c-0.4,0-0.8-0.1-1.1-0.2c-0.3-0.1-0.6-0.3-0.8-0.6c-0.2-0.2-0.3-0.5-0.4-0.9
	C348.2,114.9,348.3,114.5,348.4,114.1z"/>
<path d="M337,96.6v3.6v1.3c0.2-0.2,0.4-0.3,0.5-0.4c0.2-0.1,0.3-0.2,0.5-0.3c0.2-0.1,0.3-0.1,0.5-0.1c0.2,0,0.4,0,0.6,0
	c0.3,0,0.5,0.1,0.7,0.2c0.2,0.1,0.4,0.3,0.5,0.4c0.2,0.2,0.3,0.4,0.3,0.6c0.1,0.2,0.1,0.4,0.1,0.6c0,0.2,0,0.4-0.1,0.6
	c-0.1,0.2-0.1,0.4-0.2,0.6c-0.1,0.2-0.2,0.4-0.5,0.6c-0.2,0.2-0.4,0.3-0.6,0.5c-0.1,0.1-0.2,0.2-0.3,0.3c-0.2,0.1-0.4,0.3-0.6,0.5
	c-0.2,0.2-0.5,0.3-0.7,0.5c-0.2,0.2-0.5,0.3-0.7,0.5c-0.2,0.1-0.4,0.3-0.7,0.5V95h0.5V96.6z M338.7,102L338.7,102
	c-0.1-0.1-0.2-0.2-0.3-0.2c-0.1-0.1-0.2-0.1-0.4-0.1c-0.1,0-0.3,0-0.4,0.1c-0.1,0.1-0.3,0.2-0.4,0.4c-0.1,0.3-0.2,0.6-0.2,1
	c0,0.4,0,0.7,0,1.1v1.8c0.2-0.1,0.3-0.2,0.4-0.3c0.1-0.1,0.2-0.2,0.4-0.3c0.1-0.1,0.2-0.2,0.4-0.3c0.2-0.2,0.4-0.4,0.5-0.6
	c0.1-0.2,0.2-0.5,0.3-0.8c0.1-0.3,0.1-0.6,0.1-0.9C339,102.5,338.9,102.2,338.7,102z"/>
<path d="M331,106.9v3.6v1.3c0.2-0.2,0.4-0.3,0.5-0.4c0.2-0.1,0.3-0.2,0.5-0.3c0.2-0.1,0.3-0.1,0.5-0.1c0.2,0,0.4,0,0.6,0
	c0.3,0,0.5,0.1,0.7,0.2c0.2,0.1,0.4,0.3,0.5,0.4c0.2,0.2,0.3,0.4,0.3,0.6c0.1,0.2,0.1,0.4,0.1,0.6c0,0.2,0,0.4-0.1,0.6
	c-0.1,0.2-0.1,0.4-0.2,0.6c-0.1,0.2-0.2,0.4-0.5,0.6c-0.2,0.2-0.4,0.3-0.6,0.5c-0.1,0.1-0.2,0.2-0.3,0.3c-0.2,0.1-0.4,0.3-0.6,0.5
	c-0.2,0.2-0.5,0.3-0.7,0.5c-0.2,0.2-0.5,0.3-0.7,0.5c-0.2,0.1-0.4,0.3-0.7,0.5v-12.1h0.5V106.9z M332.7,112.3L332.7,112.3
	c-0.1-0.1-0.2-0.2-0.3-0.2c-0.1-0.1-0.2-0.1-0.4-0.1c-0.1,0-0.3,0-0.4,0.1c-0.1,0.1-0.3,0.2-0.4,0.4c-0.1,0.3-0.2,0.6-0.2,1
	c0,0.4,0,0.7,0,1.1v1.8c0.2-0.1,0.3-0.2,0.4-0.3c0.1-0.1,0.2-0.2,0.4-0.3c0.1-0.1,0.2-0.2,0.4-0.3c0.2-0.2,0.4-0.4,0.5-0.6
	c0.1-0.2,0.2-0.5,0.3-0.8c0.1-0.3,0.1-0.6,0.1-0.9C333,112.7,332.9,112.5,332.7,112.3z"/>
<line fill="none" stroke="#000000" stroke-width="0.72" stroke-miterlimit="10" x1="388.5" y1="40.6" x2="388.5" y2="70.6"/>
<path d="M388.3,39.8c0.1-0.4,0.3-0.7,0.6-1c0.3-0.3,0.6-0.6,1-0.8c0.4-0.2,0.8-0.4,1.2-0.6c0.4-0.1,0.9-0.2,1.3-0.2
	c0.4,0,0.8,0.1,1.1,0.2s0.6,0.3,0.8,0.6c0.2,0.2,0.3,0.5,0.4,0.8c0,0.3,0,0.7-0.1,1c-0.1,0.4-0.3,0.7-0.6,1c-0.3,0.3-0.6,0.6-1,0.8
	c-0.4,0.2-0.8,0.4-1.2,0.6c-0.4,0.1-0.9,0.2-1.3,0.2c-0.4,0-0.8-0.1-1.1-0.2c-0.3-0.1-0.6-0.3-0.8-0.6c-0.2-0.2-0.3-0.5-0.4-0.9
	C388.1,40.5,388.2,40.2,388.3,39.8z"/>
<path d="M388.3,45c0.1-0.4,0.3-0.7,0.6-1c0.3-0.3,0.6-0.6,1-0.8c0.4-0.2,0.8-0.4,1.2-0.6c0.4-0.1,0.9-0.2,1.3-0.2
	c0.4,0,0.8,0.1,1.1,0.2s0.6,0.3,0.8,0.6c0.2,0.2,0.3,0.5,0.4,0.8c0,0.3,0,0.7-0.1,1c-0.1,0.4-0.3,0.7-0.6,1c-0.3,0.3-0.6,0.6-1,0.8
	c-0.4,0.2-0.8,0.4-1.2,0.6c-0.4,0.1-0.9,0.2-1.3,0.2c-0.4,0-0.8-0.1-1.1-0.2c-0.3-0.1-0.6-0.3-0.8-0.6c-0.2-0.2-0.3-0.5-0.4-0.9
	C388.1,45.7,388.2,45.3,388.3,45z"/>
<path d="M388.3,52.6c0.1-0.4,0.3-0.7,0.6-1c0.3-0.3,0.6-0.6,1-0.8c0.4-0.2,0.8-0.4,1.2-0.6c0.4-0.1,0.9-0.2,1.3-0.2
	c0.4,0,0.8,0.1,1.1,0.2s0.6,0.3,0.8,0.6c0.2,0.2,0.3,0.5,0.4,0.8c0,0.3,0,0.7-0.1,1c-0.1,0.4-0.3,0.7-0.6,1c-0.3,0.3-0.6,0.6-1,0.8
	c-0.4,0.2-0.8,0.4-1.2,0.6c-0.4,0.1-0.9,0.2-1.3,0.2c-0.4,0-0.8-0.1-1.1-0.2c-0.3-0.1-0.6-0.3-0.8-0.6c-0.2-0.2-0.3-0.5-0.4-0.9
	C388.1,53.4,388.2,53,388.3,52.6z"/>
<line fill="none" stroke="#000000" stroke-width="0.72" stroke-miterlimit="10" x1="410.9" y1="40.6" x2="410.9" y2="68"/>
<path d="M410.8,39.8c0.1-0.4,0.3-0.7,0.6-1c0.3-0.3,0.6-0.6,1-0.8c0.4-0.2,0.8-0.4,1.2-0.6c0.4-0.1,0.9-0.2,1.3-0.2
	c0.4,0,0.8,0.1,1.1,0.2c0.3,0.1,0.6,0.3,0.8,0.6c0.2,0.2,0.3,0.5,0.4,0.8c0,0.3,0,0.7-0.1,1c-0.1,0.4-0.3,0.7-0.6,1
	c-0.3,0.3-0.6,0.6-1,0.8c-0.4,0.2-0.8,0.4-1.2,0.6c-0.4,0.1-0.9,0.2-1.3,0.2c-0.4,0-0.8-0.1-1.1-0.2c-0.3-0.1-0.6-0.3-0.8-0.6
	c-0.2-0.2-0.3-0.5-0.4-0.9C410.6,40.5,410.6,40.2,410.8,39.8z"/>
<path d="M410.8,47.5c0.1-0.4,0.3-0.7,0.6-1c0.3-0.3,0.6-0.6,1-0.8c0.4-0.2,0.8-0.4,1.2-0.6c0.4-0.1,0.9-0.2,1.3-0.2
	c0.4,0,0.8,0.1,1.1,0.2c0.3,0.1,0.6,0.3,0.8,0.6c0.2,0.2,0.3,0.5,0.4,0.8c0,0.3,0,0.7-0.1,1c-0.1,0.4-0.3,0.7-0.6,1
	c-0.3,0.3-0.6,0.6-1,0.8c-0.4,0.2-0.8,0.4-1.2,0.6c-0.4,0.1-0.9,0.2-1.3,0.2c-0.4,0-0.8-0.1-1.1-0.2c-0.3-0.1-0.6-0.3-0.8-0.6
	c-0.2-0.2-0.3-0.5-0.4-0.9C410.6,48.2,410.6,47.8,410.8,47.5z"/>
<path d="M410.8,55.1c0.1-0.4,0.3-0.7,0.6-1c0.3-0.3,0.6-0.6,1-0.8c0.4-0.2,0.8-0.4,1.2-0.6c0.4-0.1,0.9-0.2,1.3-0.2
	c0.4,0,0.8,0.1,1.1,0.2c0.3,0.1,0.6,0.3,0.8,0.6c0.2,0.2,0.3,0.5,0.4,0.8c0,0.3,0,0.7-0.1,1c-0.1,0.4-0.3,0.7-0.6,1
	c-0.3,0.3-0.6,0.6-1,0.8c-0.4,0.2-0.8,0.4-1.2,0.6c-0.4,0.1-0.9,0.2-1.3,0.2c-0.4,0-0.8-0.1-1.1-0.2c-0.3-0.1-0.6-0.3-0.8-0.6
	c-0.2-0.2-0.3-0.5-0.4-0.9C410.6,55.9,410.6,55.5,410.8,55.1z"/>
<line fill="none" stroke="#000000" stroke-width="0.72" stroke-miterlimit="10" x1="433.5" y1="45.8" x2="433.5" y2="70.6"/>
<path d="M433.4,45c0.1-0.4,0.3-0.7,0.6-1c0.3-0.3,0.6-0.6,1-0.8c0.4-0.2,0.8-0.4,1.2-0.6c0.4-0.1,0.9-0.2,1.3-0.2
	c0.4,0,0.8,0.1,1.1,0.2c0.3,0.1,0.6,0.3,0.8,0.6c0.2,0.2,0.3,0.5,0.4,0.8c0,0.3,0,0.7-0.1,1c-0.1,0.4-0.3,0.7-0.6,1
	c-0.3,0.3-0.6,0.6-1,0.8c-0.4,0.2-0.8,0.4-1.2,0.6c-0.4,0.1-0.9,0.2-1.3,0.2c-0.4,0-0.8-0.1-1.1-0.2c-0.3-0.1-0.6-0.3-0.8-0.6
	c-0.2-0.2-0.3-0.5-0.4-0.9C433.2,45.7,433.2,45.3,433.4,45z"/>
<path d="M433.4,52.6c0.1-0.4,0.3-0.7,0.6-1c0.3-0.3,0.6-0.6,1-0.8c0.4-0.2,0.8-0.4,1.2-0.6c0.4-0.1,0.9-0.2,1.3-0.2
	c0.4,0,0.8,0.1,1.1,0.2c0.3,0.1,0.6,0.3,0.8,0.6c0.2,0.2,0.3,0.5,0.4,0.8c0,0.3,0,0.7-0.1,1c-0.1,0.4-0.3,0.7-0.6,1
	c-0.3,0.3-0.6,0.6-1,0.8c-0.4,0.2-0.8,0.4-1.2,0.6c-0.4,0.1-0.9,0.2-1.3,0.2c-0.4,0-0.8-0.1-1.1-0.2c-0.3-0.1-0.6-0.3-0.8-0.6
	c-0.2-0.2-0.3-0.5-0.4-0.9C433.2,53.3,433.2,53,433.4,52.6z"/>
<path d="M433.4,57.7c0.1-0.4,0.3-0.7,0.6-1c0.3-0.3,0.6-0.6,1-0.8c0.4-0.2,0.8-0.4,1.2-0.6c0.4-0.1,0.9-0.2,1.3-0.2
	c0.4,0,0.8,0.1,1.1,0.2c0.3,0.1,0.6,0.3,0.8,0.6c0.2,0.2,0.3,0.5,0.4,0.8c0,0.3,0,0.7-0.1,1c-0.1,0.4-0.3,0.7-0.6,1
	c-0.3,0.3-0.6,0.6-1,0.8c-0.4,0.2-0.8,0.4-1.2,0.6c-0.4,0.1-0.9,0.2-1.3,0.2c-0.4,0-0.8-0.1-1.1-0.2c-0.3-0.1-0.6-0.3-0.8-0.6
	c-0.2-0.2-0.3-0.5-0.4-0.9C433.2,58.5,433.2,58.1,433.4,57.7z"/>
<line fill="none" stroke="#000000" stroke-width="0.72" stroke-miterlimit="10" x1="456" y1="22.7" x2="456" y2="52.6"/>
<line fill="none" stroke="#000000" stroke-width="0.72" stroke-miterlimit="10" x1="454.3" y1="37.2" x2="463.5" y2="37.2"/>
<line fill="none" stroke="#000000" stroke-width="0.72" stroke-miterlimit="10" x1="454.3" y1="32.1" x2="463.5" y2="32.1"/>
<line fill="none" stroke="#000000" stroke-width="0.72" stroke-miterlimit="10" x1="454.3" y1="27" x2="463.5" y2="27"/>
<line fill="none" stroke="#000000" stroke-width="0.72" stroke-miterlimit="10" x1="454.3" y1="21.8" x2="463.5" y2="21.8"/>
<path d="M455.8,21.9c0.1-0.4,0.3-0.7,0.6-1c0.3-0.3,0.6-0.6,1-0.8c0.4-0.2,0.8-0.4,1.2-0.6c0.4-0.1,0.9-0.2,1.3-0.2
	c0.4,0,0.8,0.1,1.1,0.2c0.3,0.1,0.6,0.3,0.8,0.6c0.2,0.2,0.3,0.5,0.4,0.8c0,0.3,0,0.7-0.1,1c-0.1,0.4-0.3,0.7-0.6,1
	c-0.3,0.3-0.6,0.6-1,0.8c-0.4,0.2-0.8,0.4-1.2,0.6c-0.4,0.1-0.9,0.2-1.3,0.2c-0.4,0-0.8-0.1-1.1-0.2c-0.3-0.1-0.6-0.3-0.8-0.6
	c-0.2-0.2-0.3-0.5-0.4-0.9C455.6,22.6,455.7,22.2,455.8,21.9z"/>
<line fill="none" stroke="#000000" stroke-width="0.72" stroke-miterlimit="10" x1="454.3" y1="37.2" x2="463.5" y2="37.2"/>
<line fill="none" stroke="#000000" stroke-width="0.72" stroke-miterlimit="10" x1="454.3" y1="32.1" x2="463.5" y2="32.1"/>
<line fill="none" stroke="#000000" stroke-width="0.72" stroke-miterlimit="10" x1="454.3" y1="27" x2="463.5" y2="27"/>
<path d="M455.8,27c0.1-0.4,0.3-0.7,0.6-1c0.3-0.3,0.6-0.6,1-0.8c0.4-0.2,0.8-0.4,1.2-0.6c0.4-0.1,0.9-0.2,1.3-0.2
	c0.4,0,0.8,0.1,1.1,0.2c0.3,0.1,0.6,0.3,0.8,0.6c0.2,0.2,0.3,0.5,0.4,0.8c0,0.3,0,0.7-0.1,1c-0.1,0.4-0.3,0.7-0.6,1
	c-0.3,0.3-0.6,0.6-1,0.8c-0.4,0.2-0.8,0.4-1.2,0.6c-0.4,0.1-0.9,0.2-1.3,0.2c-0.4,0-0.8-0.1-1.1-0.2c-0.3-0.1-0.6-0.3-0.8-0.6
	c-0.2-0.2-0.3-0.5-0.4-0.9C455.6,27.7,455.7,27.4,455.8,27z"/>
<line fill="none" stroke="#000000" stroke-width="0.72" stroke-miterlimit="10" x1="448.6" y1="37.2" x2="457.8" y2="37.2"/>
<line fill="none" stroke="#000000" stroke-width="0.72" stroke-miterlimit="10" x1="448.6" y1="32.1" x2="457.8" y2="32.1"/>
<path d="M450.1,29.5c0.1-0.4,0.3-0.7,0.6-1c0.3-0.3,0.6-0.6,1-0.8c0.4-0.2,0.8-0.4,1.2-0.6c0.4-0.1,0.9-0.2,1.3-0.2
	c0.4,0,0.8,0.1,1.1,0.2c0.3,0.1,0.6,0.3,0.8,0.6c0.2,0.2,0.3,0.5,0.4,0.8c0,0.3,0,0.7-0.1,1c-0.1,0.4-0.3,0.7-0.6,1
	c-0.3,0.3-0.6,0.6-1,0.8c-0.4,0.2-0.8,0.4-1.2,0.6c-0.4,0.1-0.9,0.2-1.3,0.2c-0.4,0-0.8-0.1-1.1-0.2c-0.3-0.1-0.6-0.3-0.8-0.6
	c-0.2-0.2-0.3-0.5-0.4-0.9C449.9,30.2,449.9,29.9,450.1,29.5z"/>
<line fill="none" stroke="#000000" stroke-width="0.72" stroke-miterlimit="10" x1="454.3" y1="37.2" x2="463.5" y2="37.2"/>
<path d="M455.8,34.7c0.1-0.4,0.3-0.7,0.6-1c0.3-0.3,0.6-0.6,1-0.8c0.4-0.2,0.8-0.4,1.2-0.6c0.4-0.1,0.9-0.2,1.3-0.2
	c0.4,0,0.8,0.1,1.1,0.2c0.3,0.1,0.6,0.3,0.8,0.6c0.2,0.2,0.3,0.5,0.4,0.8c0,0.3,0,0.7-0.1,1c-0.1,0.4-0.3,0.7-0.6,1
	c-0.3,0.3-0.6,0.6-1,0.8c-0.4,0.2-0.8,0.4-1.2,0.6c-0.4,0.1-0.9,0.2-1.3,0.2c-0.4,0-0.8-0.1-1.1-0.2c-0.3-0.1-0.6-0.3-0.8-0.6
	c-0.2-0.2-0.3-0.5-0.4-0.9C455.6,35.4,455.7,35.1,455.8,34.7z"/>
<path d="M465.2,14.2c-0.3-1.1-0.7-1.9-1.2-2.5c-0.5-0.6-1-1.1-1.6-1.4c-0.6-0.3-1.1-0.5-1.7-0.6c-0.6-0.1-1-0.1-1.5-0.1
	s-0.9,0-1.5,0.1c-0.6,0.1-1.1,0.3-1.7,0.6c-0.6,0.3-1.1,0.8-1.6,1.4c-0.5,0.6-0.9,1.4-1.2,2.5h-0.3c0-0.5,0.1-1.1,0.2-1.6
	c0.2-0.6,0.4-1.1,0.6-1.6c0.3-0.5,0.6-1,1-1.5c0.4-0.5,0.8-0.9,1.3-1.2c0.5-0.3,0.9-0.6,1.5-0.8c0.5-0.2,1.1-0.3,1.7-0.3
	c0.6,0,1.1,0.1,1.6,0.3c0.5,0.2,1,0.5,1.5,0.8c0.5,0.3,0.9,0.8,1.3,1.2c0.4,0.5,0.7,1,1,1.5c0.3,0.5,0.5,1.1,0.6,1.6
	c0.2,0.6,0.2,1.1,0.2,1.6H465.2z M460.7,13.2c0,0.4-0.1,0.7-0.4,1c-0.3,0.3-0.6,0.4-1,0.4c-0.4,0-0.7-0.1-1-0.4
	c-0.3-0.3-0.4-0.6-0.4-1c0-0.4,0.1-0.7,0.4-1c0.3-0.3,0.6-0.4,1-0.4c0.4,0,0.7,0.1,1,0.4C460.6,12.5,460.7,12.8,460.7,13.2z"/>
<line fill="none" stroke="#000000" stroke-width="0.72" stroke-miterlimit="10" x1="388.5" y1="94.4" x2="388.5" y2="129.5"/>
<line fill="none" stroke="#000000" stroke-width="0.72" stroke-miterlimit="10" x1="386.9" y1="98.7" x2="396.1" y2="98.7"/>
<line fill="none" stroke="#000000" stroke-width="0.72" stroke-miterlimit="10" x1="386.9" y1="93.6" x2="396.1" y2="93.6"/>
<path d="M388.3,93.6c0.1-0.4,0.3-0.7,0.6-1c0.3-0.3,0.6-0.6,1-0.8c0.4-0.2,0.8-0.4,1.2-0.6c0.4-0.1,0.9-0.2,1.3-0.2
	c0.4,0,0.8,0.1,1.1,0.2s0.6,0.3,0.8,0.6c0.2,0.2,0.3,0.5,0.4,0.8c0,0.3,0,0.7-0.1,1c-0.1,0.4-0.3,0.7-0.6,1c-0.3,0.3-0.6,0.6-1,0.8
	c-0.4,0.2-0.8,0.4-1.2,0.6c-0.4,0.1-0.9,0.2-1.3,0.2c-0.4,0-0.8-0.1-1.1-0.2c-0.3-0.1-0.6-0.3-0.8-0.6c-0.2-0.2-0.3-0.5-0.4-0.9
	C388.1,94.3,388.2,94,388.3,93.6z"/>
<path d="M388.3,106.5c0.1-0.4,0.3-0.7,0.6-1c0.3-0.3,0.6-0.6,1-0.8c0.4-0.2,0.8-0.4,1.2-0.6c0.4-0.1,0.9-0.2,1.3-0.2
	c0.4,0,0.8,0.1,1.1,0.2s0.6,0.3,0.8,0.6c0.2,0.2,0.3,0.5,0.4,0.8c0,0.3,0,0.7-0.1,1c-0.1,0.4-0.3,0.7-0.6,1c-0.3,0.3-0.6,0.6-1,0.8
	c-0.4,0.2-0.8,0.4-1.2,0.6c-0.4,0.1-0.9,0.2-1.3,0.2c-0.4,0-0.8-0.1-1.1-0.2c-0.3-0.1-0.6-0.3-0.8-0.6c-0.2-0.2-0.3-0.5-0.4-0.9
	C388.1,107.2,388.2,106.8,388.3,106.5z"/>
<path d="M388.3,116.7c0.1-0.4,0.3-0.7,0.6-1c0.3-0.3,0.6-0.6,1-0.8c0.4-0.2,0.8-0.4,1.2-0.6c0.4-0.1,0.9-0.2,1.3-0.2
	c0.4,0,0.8,0.1,1.1,0.2s0.6,0.3,0.8,0.6c0.2,0.2,0.3,0.5,0.4,0.8c0,0.3,0,0.7-0.1,1c-0.1,0.4-0.3,0.7-0.6,1c-0.3,0.3-0.6,0.6-1,0.8
	c-0.4,0.2-0.8,0.4-1.2,0.6c-0.4,0.1-0.9,0.2-1.3,0.2c-0.4,0-0.8-0.1-1.1-0.2c-0.3-0.1-0.6-0.3-0.8-0.6c-0.2-0.2-0.3-0.5-0.4-0.9
	C388.1,117.4,388.2,117,388.3,116.7z"/>
<line fill="none" stroke="#000000" stroke-width="0.72" stroke-miterlimit="10" x1="410.9" y1="94.4" x2="410.9" y2="126.9"/>
<line fill="none" stroke="#000000" stroke-width="0.72" stroke-miterlimit="10" x1="409.3" y1="98.7" x2="418.5" y2="98.7"/>
<line fill="none" stroke="#000000" stroke-width="0.72" stroke-miterlimit="10" x1="409.3" y1="93.6" x2="418.5" y2="93.6"/>
<path d="M410.8,93.6c0.1-0.4,0.3-0.7,0.6-1c0.3-0.3,0.6-0.6,1-0.8c0.4-0.2,0.8-0.4,1.2-0.6c0.4-0.1,0.9-0.2,1.3-0.2
	c0.4,0,0.8,0.1,1.1,0.2c0.3,0.1,0.6,0.3,0.8,0.6c0.2,0.2,0.3,0.5,0.4,0.8c0,0.3,0,0.7-0.1,1c-0.1,0.4-0.3,0.7-0.6,1
	c-0.3,0.3-0.6,0.6-1,0.8c-0.4,0.2-0.8,0.4-1.2,0.6c-0.4,0.1-0.9,0.2-1.3,0.2c-0.4,0-0.8-0.1-1.1-0.2c-0.3-0.1-0.6-0.3-0.8-0.6
	c-0.2-0.2-0.3-0.5-0.4-0.9C410.6,94.3,410.6,94,410.8,93.6z"/>
<path d="M408.2,104.9v11.7h-0.5v-4.4l-2.9,0.7v-11.9h0.5v4.6L408.2,104.9z M405.3,107.7v3.2l2.3-0.6v-3.2L405.3,107.7z M410.8,109
	c0.1-0.4,0.3-0.7,0.6-1c0.3-0.3,0.6-0.6,1-0.8c0.4-0.2,0.8-0.4,1.2-0.6c0.4-0.1,0.9-0.2,1.3-0.2c0.4,0,0.8,0.1,1.1,0.2
	c0.3,0.1,0.6,0.3,0.8,0.6c0.2,0.2,0.3,0.5,0.4,0.8c0,0.3,0,0.7-0.1,1c-0.1,0.4-0.3,0.7-0.6,1c-0.3,0.3-0.6,0.6-1,0.8
	c-0.4,0.2-0.8,0.4-1.2,0.6c-0.4,0.1-0.9,0.2-1.3,0.2c-0.4,0-0.8-0.1-1.1-0.2c-0.3-0.1-0.6-0.3-0.8-0.6c-0.2-0.2-0.3-0.5-0.4-0.9
	C410.6,109.7,410.6,109.4,410.8,109z"/>
<path d="M405.1,86.3V90v1.3c0.2-0.2,0.4-0.3,0.5-0.4c0.2-0.1,0.3-0.2,0.5-0.3c0.2-0.1,0.3-0.1,0.5-0.1c0.2,0,0.4,0,0.6,0
	c0.3,0,0.5,0.1,0.7,0.2c0.2,0.1,0.4,0.3,0.5,0.4c0.2,0.2,0.3,0.4,0.3,0.6c0.1,0.2,0.1,0.4,0.1,0.6c0,0.2,0,0.4-0.1,0.6
	c-0.1,0.2-0.1,0.4-0.2,0.6c-0.1,0.2-0.2,0.4-0.5,0.6c-0.2,0.2-0.4,0.3-0.6,0.5c-0.1,0.1-0.2,0.2-0.3,0.3c-0.2,0.1-0.4,0.3-0.6,0.5
	c-0.2,0.2-0.5,0.3-0.7,0.5c-0.2,0.2-0.5,0.3-0.7,0.5c-0.2,0.1-0.4,0.3-0.7,0.5V84.7h0.5V86.3z M406.8,91.7L406.8,91.7
	c-0.1-0.1-0.2-0.2-0.3-0.2c-0.1-0.1-0.2-0.1-0.4-0.1c-0.1,0-0.3,0-0.4,0.1c-0.1,0.1-0.3,0.2-0.4,0.4c-0.1,0.3-0.2,0.6-0.2,1
	c0,0.4,0,0.7,0,1.1v1.8c0.2-0.1,0.3-0.2,0.4-0.3c0.1-0.1,0.2-0.2,0.4-0.3c0.1-0.1,0.2-0.2,0.4-0.3c0.2-0.2,0.4-0.4,0.5-0.6
	c0.1-0.2,0.2-0.5,0.3-0.8c0.1-0.3,0.1-0.6,0.1-0.9C407.1,92.2,407,91.9,406.8,91.7z"/>
<line fill="none" stroke="#000000" stroke-width="0.72" stroke-miterlimit="10" x1="433.5" y1="94.4" x2="433.5" y2="129.5"/>
<line fill="none" stroke="#000000" stroke-width="0.72" stroke-miterlimit="10" x1="432" y1="98.7" x2="441.1" y2="98.7"/>
<line fill="none" stroke="#000000" stroke-width="0.72" stroke-miterlimit="10" x1="432" y1="93.6" x2="441.1" y2="93.6"/>
<path d="M433.4,93.6c0.1-0.4,0.3-0.7,0.6-1c0.3-0.3,0.6-0.6,1-0.8c0.4-0.2,0.8-0.4,1.2-0.6c0.4-0.1,0.9-0.2,1.3-0.2
	c0.4,0,0.8,0.1,1.1,0.2c0.3,0.1,0.6,0.3,0.8,0.6c0.2,0.2,0.3,0.5,0.4,0.8c0,0.3,0,0.7-0.1,1c-0.1,0.4-0.3,0.7-0.6,1
	c-0.3,0.3-0.6,0.6-1,0.8c-0.4,0.2-0.8,0.4-1.2,0.6c-0.4,0.1-0.9,0.2-1.3,0.2c-0.4,0-0.8-0.1-1.1-0.2c-0.3-0.1-0.6-0.3-0.8-0.6
	c-0.2-0.2-0.3-0.5-0.4-0.9C433.2,94.3,433.2,94,433.4,93.6z"/>
<path d="M433.4,106.5c0.1-0.4,0.3-0.7,0.6-1c0.3-0.3,0.6-0.6,1-0.8c0.4-0.2,0.8-0.4,1.2-0.6c0.4-0.1,0.9-0.2,1.3-0.2
	c0.4,0,0.8,0.1,1.1,0.2c0.3,0.1,0.6,0.3,0.8,0.6c0.2,0.2,0.3,0.5,0.4,0.8c0,0.3,0,0.7-0.1,1c-0.1,0.4-0.3,0.7-0.6,1
	c-0.3,0.3-0.6,0.6-1,0.8c-0.4,0.2-0.8,0.4-1.2,0.6c-0.4,0.1-0.9,0.2-1.3,0.2c-0.4,0-0.8-0.1-1.1-0.2c-0.3-0.1-0.6-0.3-0.8-0.6
	c-0.2-0.2-0.3-0.5-0.4-0.9C433.2,107.2,433.2,106.8,433.4,106.5z"/>
<path d="M433.4,116.7c0.1-0.4,0.3-0.7,0.6-1c0.3-0.3,0.6-0.6,1-0.8c0.4-0.2,0.8-0.4,1.2-0.6c0.4-0.1,0.9-0.2,1.3-0.2
	c0.4,0,0.8,0.1,1.1,0.2c0.3,0.1,0.6,0.3,0.8,0.6c0.2,0.2,0.3,0.5,0.4,0.8c0,0.3,0,0.7-0.1,1c-0.1,0.4-0.3,0.7-0.6,1
	c-0.3,0.3-0.6,0.6-1,0.8c-0.4,0.2-0.8,0.4-1.2,0.6c-0.4,0.1-0.9,0.2-1.3,0.2c-0.4,0-0.8-0.1-1.1-0.2c-0.3-0.1-0.6-0.3-0.8-0.6
	c-0.2-0.2-0.3-0.5-0.4-0.9C433.2,117.4,433.2,117,433.4,116.7z"/>
<path d="M430.8,89.6v11.7h-0.5v-4.4l-2.9,0.7V85.8h0.5v4.6L430.8,89.6z M427.9,92.3v3.2l2.3-0.6v-3.2L427.9,92.3z"/>
<line fill="none" stroke="#000000" stroke-width="0.72" stroke-miterlimit="10" x1="456" y1="89.3" x2="456" y2="114.1"/>
<line fill="none" stroke="#000000" stroke-width="0.72" stroke-miterlimit="10" x1="454.3" y1="98.7" x2="463.5" y2="98.7"/>
<line fill="none" stroke="#000000" stroke-width="0.72" stroke-miterlimit="10" x1="454.3" y1="93.6" x2="463.5" y2="93.6"/>
<line fill="none" stroke="#000000" stroke-width="0.72" stroke-miterlimit="10" x1="454.3" y1="88.5" x2="463.5" y2="88.5"/>
<path d="M455.8,88.5c0.1-0.4,0.3-0.7,0.6-1c0.3-0.3,0.6-0.6,1-0.8c0.4-0.2,0.8-0.4,1.2-0.6c0.4-0.1,0.9-0.2,1.3-0.2
	c0.4,0,0.8,0.1,1.1,0.2c0.3,0.1,0.6,0.3,0.8,0.6c0.2,0.2,0.3,0.5,0.4,0.8c0,0.3,0,0.7-0.1,1c-0.1,0.4-0.3,0.7-0.6,1
	c-0.3,0.3-0.6,0.6-1,0.8c-0.4,0.2-0.8,0.4-1.2,0.6c-0.4,0.1-0.9,0.2-1.3,0.2c-0.4,0-0.8-0.1-1.1-0.2c-0.3-0.1-0.6-0.3-0.8-0.6
	c-0.2-0.2-0.3-0.5-0.4-0.9C455.6,89.2,455.7,88.9,455.8,88.5z"/>
<line fill="none" stroke="#000000" stroke-width="0.72" stroke-miterlimit="10" x1="454.3" y1="98.7" x2="463.5" y2="98.7"/>
<line fill="none" stroke="#000000" stroke-width="0.72" stroke-miterlimit="10" x1="454.3" y1="93.6" x2="463.5" y2="93.6"/>
<path d="M455.8,93.6c0.1-0.4,0.3-0.7,0.6-1c0.3-0.3,0.6-0.6,1-0.8c0.4-0.2,0.8-0.4,1.2-0.6c0.4-0.1,0.9-0.2,1.3-0.2
	c0.4,0,0.8,0.1,1.1,0.2c0.3,0.1,0.6,0.3,0.8,0.6c0.2,0.2,0.3,0.5,0.4,0.8c0,0.3,0,0.7-0.1,1c-0.1,0.4-0.3,0.7-0.6,1
	c-0.3,0.3-0.6,0.6-1,0.8c-0.4,0.2-0.8,0.4-1.2,0.6c-0.4,0.1-0.9,0.2-1.3,0.2c-0.4,0-0.8-0.1-1.1-0.2c-0.3-0.1-0.6-0.3-0.8-0.6
	c-0.2-0.2-0.3-0.5-0.4-0.9C455.6,94.3,455.7,94,455.8,93.6z"/>
<line fill="none" stroke="#000000" stroke-width="0.72" stroke-miterlimit="10" x1="448.6" y1="98.7" x2="457.8" y2="98.7"/>
<path d="M450.1,96.2c0.1-0.4,0.3-0.7,0.6-1c0.3-0.3,0.6-0.6,1-0.8c0.4-0.2,0.8-0.4,1.2-0.6c0.4-0.1,0.9-0.2,1.3-0.2
	c0.4,0,0.8,0.1,1.1,0.2c0.3,0.1,0.6,0.3,0.8,0.6c0.2,0.2,0.3,0.5,0.4,0.8c0,0.3,0,0.7-0.1,1c-0.1,0.4-0.3,0.7-0.6,1
	c-0.3,0.3-0.6,0.6-1,0.8c-0.4,0.2-0.8,0.4-1.2,0.6c-0.4,0.1-0.9,0.2-1.3,0.2c-0.4,0-0.8-0.1-1.1-0.2c-0.3-0.1-0.6-0.3-0.8-0.6
	c-0.2-0.2-0.3-0.5-0.4-0.9C449.9,96.9,449.9,96.6,450.1,96.2z"/>
<path d="M465.2,81c-0.3-1.1-0.7-1.9-1.2-2.5c-0.5-0.6-1-1.1-1.6-1.4c-0.6-0.3-1.1-0.5-1.7-0.6c-0.6-0.1-1-0.1-1.5-0.1
	s-0.9,0-1.5,0.1c-0.6,0.1-1.1,0.3-1.7,0.6c-0.6,0.3-1.1,0.8-1.6,1.4c-0.5,0.6-0.9,1.4-1.2,2.5h-0.3c0-0.5,0.1-1.1,0.2-1.6
	c0.2-0.6,0.4-1.1,0.6-1.6c0.3-0.5,0.6-1,1-1.5c0.4-0.5,0.8-0.9,1.3-1.2c0.5-0.3,0.9-0.6,1.5-0.8c0.5-0.2,1.1-0.3,1.7-0.3
	c0.6,0,1.1,0.1,1.6,0.3c0.5,0.2,1,0.5,1.5,0.8c0.5,0.3,0.9,0.8,1.3,1.2c0.4,0.5,0.7,1,1,1.5c0.3,0.5,0.5,1.1,0.6,1.6
	c0.2,0.6,0.2,1.1,0.2,1.6H465.2z M460.7,80c0,0.4-0.1,0.7-0.4,1c-0.3,0.3-0.6,0.4-1,0.4c-0.4,0-0.7-0.1-1-0.4
	c-0.3-0.3-0.4-0.6-0.4-1c0-0.4,0.1-0.7,0.4-1c0.3-0.3,0.6-0.4,1-0.4c0.4,0,0.7,0.1,1,0.4C460.6,79.3,460.7,79.7,460.7,80z"/>
<path d="M65.2,38.7c0-0.2,0-0.3,0-0.4c0-0.1-0.1-0.2-0.1-0.4c-0.1-0.1-0.1-0.3-0.2-0.4c-0.1-0.1-0.1-0.2-0.2-0.4l-0.2-0.3l0.1-0.2
	c0.2,0.2,0.4,0.3,0.6,0.5c0.2,0.1,0.3,0.3,0.4,0.4c0.1,0.1,0.3,0.3,0.3,0.4c0.3,0.3,0.5,0.6,0.7,0.9c0.2,0.3,0.3,0.6,0.3,0.9
	c0,0.4-0.1,0.7-0.2,0.9c-0.1,0.2-0.3,0.4-0.4,0.6c-0.2,0.2-0.3,0.4-0.4,0.6c-0.1,0.2-0.2,0.5-0.2,0.8c0,0.2,0,0.3,0,0.4
	c0,0.1,0.1,0.2,0.1,0.4c0.1,0.1,0.1,0.3,0.2,0.4c0.1,0.1,0.1,0.2,0.2,0.4c0.1,0.1,0.1,0.2,0.2,0.3l-0.1,0.2
	c-0.2-0.2-0.4-0.3-0.5-0.5c-0.2-0.1-0.3-0.3-0.4-0.4c-0.1-0.1-0.3-0.3-0.3-0.4c-0.2-0.3-0.5-0.6-0.7-0.9S64,41.9,64,41.6
	c0-0.4,0.1-0.7,0.2-0.9c0.1-0.2,0.3-0.4,0.4-0.6c0.2-0.2,0.3-0.4,0.4-0.6C65.1,39.3,65.2,39,65.2,38.7z"/>
<path d="M65.3,44.6c0-0.2,0-0.3,0-0.4c0-0.1-0.1-0.2-0.1-0.4c-0.1-0.1-0.1-0.3-0.2-0.4c-0.1-0.1-0.1-0.2-0.2-0.4l-0.2-0.3l0.1-0.2
	c0.2,0.2,0.4,0.3,0.6,0.5c0.2,0.1,0.3,0.3,0.4,0.4c0.1,0.1,0.3,0.3,0.3,0.4c0.3,0.3,0.5,0.6,0.7,0.9c0.2,0.3,0.3,0.6,0.3,0.9
	c0,0.4-0.1,0.7-0.2,0.9c-0.1,0.2-0.3,0.4-0.4,0.6c-0.2,0.2-0.3,0.4-0.4,0.6c-0.1,0.2-0.2,0.5-0.2,0.8c0,0.2,0,0.3,0,0.4
	c0,0.1,0.1,0.2,0.1,0.4c0.1,0.1,0.1,0.3,0.2,0.4c0.1,0.1,0.1,0.2,0.2,0.4c0.1,0.1,0.1,0.2,0.2,0.3l-0.1,0.2
	c-0.2-0.2-0.4-0.3-0.5-0.5c-0.2-0.1-0.3-0.3-0.4-0.4c-0.1-0.1-0.3-0.3-0.3-0.4c-0.2-0.3-0.5-0.6-0.7-0.9s-0.3-0.6-0.3-0.9
	c0-0.4,0.1-0.7,0.2-0.9c0.1-0.2,0.3-0.4,0.4-0.6c0.2-0.2,0.3-0.4,0.4-0.6C65.2,45.2,65.3,44.9,65.3,44.6z"/>
<path d="M65.4,50.6c0-0.2,0-0.3,0-0.4c0-0.1-0.1-0.2-0.1-0.4c-0.1-0.1-0.1-0.3-0.2-0.4c-0.1-0.1-0.1-0.2-0.2-0.4l-0.2-0.3l0.1-0.2
	c0.2,0.2,0.4,0.3,0.6,0.5c0.2,0.1,0.3,0.3,0.4,0.4c0.1,0.1,0.3,0.3,0.3,0.4c0.3,0.3,0.5,0.6,0.7,0.9c0.2,0.3,0.3,0.6,0.3,0.9
	c0,0.4-0.1,0.7-0.2,0.9c-0.1,0.2-0.3,0.4-0.4,0.6c-0.2,0.2-0.3,0.4-0.4,0.6c-0.1,0.2-0.2,0.5-0.2,0.8c0,0.2,0,0.3,0,0.4
	c0,0.1,0.1,0.2,0.1,0.4c0.1,0.1,0.1,0.3,0.2,0.4c0.1,0.1,0.1,0.2,0.2,0.4c0.1,0.1,0.1,0.2,0.2,0.3l-0.1,0.2
	c-0.2-0.2-0.4-0.3-0.5-0.5c-0.2-0.1-0.3-0.3-0.4-0.4c-0.1-0.1-0.3-0.3-0.3-0.4c-0.2-0.3-0.5-0.6-0.7-0.9s-0.3-0.6-0.3-0.9
	c0-0.4,0.1-0.7,0.2-0.9c0.1-0.2,0.3-0.4,0.4-0.6c0.2-0.2,0.3-0.4,0.4-0.6C65.3,51.2,65.4,50.9,65.4,50.6z"/>
<path d="M65.5,56.5c0-0.2,0-0.3,0-0.4c0-0.1-0.1-0.2-0.1-0.4c-0.1-0.1-0.1-0.3-0.2-0.4C65.1,55.2,65,55.1,65,55l-0.2-0.3l0.1-0.2
	c0.2,0.2,0.4,0.3,0.6,0.5c0.2,0.1,0.3,0.3,0.4,0.4c0.1,0.1,0.3,0.3,0.3,0.4c0.3,0.3,0.5,0.6,0.7,0.9c0.2,0.3,0.3,0.6,0.3,0.9
	c0,0.4-0.1,0.7-0.2,0.9c-0.1,0.2-0.3,0.4-0.4,0.6c-0.2,0.2-0.3,0.4-0.4,0.6c-0.1,0.2-0.2,0.5-0.2,0.8c0,0.2,0,0.3,0,0.4
	c0,0.1,0.1,0.2,0.1,0.4c0.1,0.1,0.1,0.3,0.2,0.4c0.1,0.1,0.1,0.2,0.2,0.4c0.1,0.1,0.1,0.2,0.2,0.3l-0.1,0.2
	c-0.2-0.2-0.4-0.3-0.5-0.5c-0.2-0.1-0.3-0.3-0.4-0.4c-0.1-0.1-0.3-0.3-0.3-0.4c-0.2-0.3-0.5-0.6-0.7-0.9s-0.3-0.6-0.3-0.9
	c0-0.4,0.1-0.7,0.2-0.9c0.1-0.2,0.3-0.4,0.4-0.6c0.2-0.2,0.3-0.4,0.4-0.6C65.4,57.1,65.5,56.8,65.5,56.5z"/>
<path d="M65.2,89.5c0-0.2,0-0.3,0-0.4c0-0.1-0.1-0.2-0.1-0.4c-0.1-0.2-0.1-0.3-0.2-0.4c0-0.1-0.1-0.2-0.2-0.4l-0.2-0.3l0.1-0.2
	c0.2,0.2,0.4,0.3,0.6,0.5c0.2,0.1,0.3,0.3,0.4,0.4c0.1,0.1,0.3,0.3,0.3,0.4c0.2,0.3,0.5,0.6,0.7,1c0.2,0.3,0.3,0.6,0.3,0.9
	c0,0.4-0.1,0.7-0.2,0.9c-0.1,0.2-0.3,0.4-0.4,0.6c-0.2,0.2-0.3,0.4-0.4,0.6c-0.1,0.2-0.2,0.5-0.2,0.8c0,0.2,0,0.3,0,0.4
	c0,0.1,0.1,0.2,0.1,0.4c0.1,0.2,0.1,0.3,0.2,0.4c0,0.1,0.1,0.2,0.2,0.4c0.1,0.1,0.1,0.2,0.2,0.3l-0.1,0.2c-0.2-0.2-0.4-0.3-0.5-0.5
	c-0.2-0.1-0.3-0.3-0.4-0.4c-0.1-0.2-0.3-0.3-0.3-0.4c-0.2-0.3-0.5-0.6-0.7-0.9s-0.3-0.7-0.3-0.9c0-0.4,0.1-0.7,0.2-0.9
	c0.1-0.2,0.3-0.4,0.4-0.6c0.2-0.2,0.3-0.4,0.4-0.6C65.1,90,65.2,89.8,65.2,89.5z M65.2,95.8c0-0.2,0-0.3,0-0.4
	c0-0.1-0.1-0.2-0.1-0.4c-0.1-0.2-0.1-0.3-0.2-0.4c0-0.1-0.1-0.2-0.2-0.4l-0.2-0.3l0.1-0.2c0.2,0.2,0.4,0.3,0.6,0.5
	c0.2,0.1,0.3,0.3,0.4,0.4c0.1,0.1,0.3,0.3,0.3,0.4c0.2,0.3,0.5,0.6,0.7,1c0.2,0.3,0.3,0.6,0.3,0.9c0,0.4-0.1,0.7-0.2,0.9
	c-0.1,0.2-0.3,0.4-0.4,0.6c-0.2,0.2-0.3,0.4-0.4,0.6c-0.1,0.2-0.2,0.5-0.2,0.8c0,0.2,0,0.3,0,0.4c0,0.1,0.1,0.2,0.1,0.4
	c0.1,0.2,0.1,0.3,0.2,0.4c0,0.1,0.1,0.2,0.2,0.4c0.1,0.1,0.1,0.2,0.2,0.3l-0.1,0.2c-0.2-0.2-0.4-0.3-0.5-0.5
	c-0.2-0.1-0.3-0.3-0.4-0.4c-0.1-0.2-0.3-0.3-0.3-0.4c-0.2-0.3-0.5-0.6-0.7-0.9s-0.3-0.7-0.3-0.9c0-0.4,0.1-0.7,0.2-0.9
	c0.1-0.2,0.3-0.4,0.4-0.6c0.2-0.2,0.3-0.4,0.4-0.6C65.1,96.4,65.2,96.1,65.2,95.8z M65.2,102.1c0-0.2,0-0.3,0-0.4
	c0-0.1-0.1-0.2-0.1-0.4c-0.1-0.2-0.1-0.3-0.2-0.4c0-0.1-0.1-0.2-0.2-0.4l-0.2-0.3l0.1-0.2c0.2,0.2,0.4,0.3,0.6,0.5
	c0.2,0.1,0.3,0.3,0.4,0.4c0.1,0.1,0.3,0.3,0.3,0.4c0.2,0.3,0.5,0.6,0.7,1c0.2,0.3,0.3,0.6,0.3,0.9c0,0.4-0.1,0.7-0.2,0.9
	c-0.1,0.2-0.3,0.4-0.4,0.6c-0.2,0.2-0.3,0.4-0.4,0.6c-0.1,0.2-0.2,0.5-0.2,0.8c0,0.2,0,0.3,0,0.4c0,0.1,0.1,0.2,0.1,0.4
	c0.1,0.2,0.1,0.3,0.2,0.4c0,0.1,0.1,0.2,0.2,0.4c0.1,0.1,0.1,0.2,0.2,0.3l-0.1,0.2c-0.2-0.2-0.4-0.3-0.5-0.5
	c-0.2-0.1-0.3-0.3-0.4-0.4c-0.1-0.2-0.3-0.3-0.3-0.4c-0.2-0.3-0.5-0.6-0.7-0.9s-0.3-0.7-0.3-0.9c0-0.4,0.1-0.7,0.2-0.9
	c0.1-0.2,0.3-0.4,0.4-0.6c0.2-0.2,0.3-0.4,0.4-0.6C65.1,102.7,65.2,102.4,65.2,102.1z M65.2,108.5c0-0.2,0-0.3,0-0.4
	c0-0.1-0.1-0.2-0.1-0.4c-0.1-0.2-0.1-0.3-0.2-0.4c0-0.1-0.1-0.2-0.2-0.4l-0.2-0.3l0.1-0.2c0.2,0.2,0.4,0.3,0.6,0.5
	c0.2,0.1,0.3,0.3,0.4,0.4c0.1,0.1,0.3,0.3,0.3,0.4c0.2,0.3,0.5,0.6,0.7,1c0.2,0.3,0.3,0.6,0.3,0.9c0,0.4-0.1,0.7-0.2,0.9
	c-0.1,0.2-0.3,0.4-0.4,0.6c-0.2,0.2-0.3,0.4-0.4,0.6c-0.1,0.2-0.2,0.5-0.2,0.8c0,0.2,0,0.3,0,0.4c0,0.1,0.1,0.2,0.1,0.4
	c0.1,0.2,0.1,0.3,0.2,0.4c0,0.1,0.1,0.2,0.2,0.4c0.1,0.1,0.1,0.2,0.2,0.3l-0.1,0.2c-0.2-0.2-0.4-0.3-0.5-0.5
	c-0.2-0.1-0.3-0.3-0.4-0.4c-0.1-0.2-0.3-0.3-0.3-0.4c-0.2-0.3-0.5-0.6-0.7-0.9s-0.3-0.7-0.3-0.9c0-0.4,0.1-0.7,0.2-0.9
	c0.1-0.2,0.3-0.4,0.4-0.6c0.2-0.2,0.3-0.4,0.4-0.6C65.1,109,65.2,108.8,65.2,108.5z M65.2,114.8c0-0.2,0-0.3,0-0.4
	c0-0.1-0.1-0.2-0.1-0.4c-0.1-0.2-0.1-0.3-0.2-0.4c0-0.1-0.1-0.2-0.2-0.4l-0.2-0.3l0.1-0.2c0.2,0.2,0.4,0.3,0.6,0.5
	c0.2,0.1,0.3,0.3,0.4,0.4c0.1,0.1,0.3,0.3,0.3,0.4c0.2,0.3,0.5,0.6,0.7,1c0.2,0.3,0.3,0.6,0.3,0.9c0,0.4-0.1,0.7-0.2,0.9
	c-0.1,0.2-0.3,0.4-0.4,0.6c-0.2,0.2-0.3,0.4-0.4,0.6c-0.1,0.2-0.2,0.5-0.2,0.8c0,0.2,0,0.3,0,0.4c0,0.1,0.1,0.2,0.1,0.4
	c0.1,0.2,0.1,0.3,0.2,0.4c0,0.1,0.1,0.2,0.2,0.4c0.1,0.1,0.1,0.2,0.2,0.3l-0.1,0.2c-0.2-0.2-0.4-0.3-0.5-0.5
	c-0.2-0.1-0.3-0.3-0.4-0.4c-0.1-0.2-0.3-0.3-0.3-0.4c-0.2-0.3-0.5-0.6-0.7-0.9s-0.3-0.7-0.3-0.9c0-0.4,0.1-0.7,0.2-0.9
	c0.1-0.2,0.3-0.4,0.4-0.6c0.2-0.2,0.3-0.4,0.4-0.6C65.1,115.4,65.2,115.1,65.2,114.8z"/>
<path d="M446.9,21.2c0-0.2,0-0.3,0-0.4c0-0.1-0.1-0.2-0.1-0.4c-0.1-0.2-0.1-0.3-0.2-0.4c0-0.1-0.1-0.3-0.1-0.4l-0.2-0.3l0.1-0.2
	c0.2,0.2,0.4,0.4,0.5,0.5c0.1,0.1,0.3,0.3,0.4,0.4c0.1,0.1,0.3,0.3,0.3,0.4c0.2,0.3,0.5,0.6,0.7,1c0.2,0.4,0.3,0.7,0.3,0.9
	c0,0.4-0.1,0.7-0.2,0.9c-0.1,0.2-0.3,0.4-0.4,0.6c-0.2,0.2-0.3,0.4-0.4,0.6c-0.1,0.2-0.2,0.5-0.2,0.8c0,0.2,0,0.3,0,0.4
	c0,0.1,0.1,0.2,0.1,0.4c0.1,0.2,0.1,0.3,0.1,0.4c0,0.1,0.1,0.3,0.1,0.4c0.1,0.1,0.1,0.2,0.2,0.3l-0.1,0.2c-0.2-0.2-0.4-0.3-0.5-0.5
	c-0.1-0.1-0.3-0.3-0.4-0.4c-0.1-0.2-0.3-0.3-0.3-0.4c-0.2-0.3-0.4-0.6-0.6-0.9c-0.2-0.4-0.3-0.7-0.3-0.9c0-0.4,0.1-0.7,0.2-0.9
	c0.1-0.2,0.3-0.4,0.4-0.6c0.2-0.2,0.3-0.4,0.4-0.6C446.8,21.7,446.9,21.5,446.9,21.2z"/>
<path d="M446.8,28.1c0-0.2,0-0.3,0-0.4c0-0.1-0.1-0.2-0.1-0.4c-0.1-0.2-0.1-0.3-0.2-0.4c0-0.1-0.1-0.3-0.1-0.4l-0.2-0.3l0.1-0.2
	c0.2,0.2,0.4,0.4,0.5,0.5c0.1,0.1,0.3,0.3,0.4,0.4c0.1,0.1,0.3,0.3,0.3,0.4c0.2,0.3,0.5,0.6,0.7,1c0.2,0.4,0.3,0.7,0.3,0.9
	c0,0.4-0.1,0.7-0.2,0.9c-0.1,0.2-0.3,0.4-0.4,0.6c-0.2,0.2-0.3,0.4-0.4,0.6c-0.1,0.2-0.2,0.5-0.2,0.8c0,0.2,0,0.3,0,0.4
	c0,0.1,0.1,0.2,0.1,0.4c0.1,0.2,0.1,0.3,0.1,0.4c0,0.1,0.1,0.3,0.1,0.4c0.1,0.1,0.1,0.2,0.2,0.3l-0.1,0.2c-0.2-0.2-0.4-0.3-0.5-0.5
	c-0.1-0.1-0.3-0.3-0.4-0.4c-0.1-0.2-0.3-0.3-0.3-0.4c-0.2-0.3-0.4-0.6-0.6-0.9c-0.2-0.4-0.3-0.7-0.3-0.9c0-0.4,0.1-0.7,0.2-0.9
	c0.1-0.2,0.3-0.4,0.4-0.6c0.2-0.2,0.3-0.4,0.4-0.6C446.7,28.7,446.8,28.4,446.8,28.1z"/>
<path d="M446.6,35.1c0-0.2,0-0.3,0-0.4c0-0.1-0.1-0.2-0.1-0.4c-0.1-0.2-0.1-0.3-0.2-0.4c0-0.1-0.1-0.3-0.1-0.4l-0.2-0.3l0.1-0.2
	c0.2,0.2,0.4,0.4,0.5,0.5c0.1,0.1,0.3,0.3,0.4,0.4c0.1,0.1,0.3,0.3,0.3,0.4c0.2,0.3,0.5,0.6,0.7,1c0.2,0.4,0.3,0.7,0.3,0.9
	c0,0.4-0.1,0.7-0.2,0.9c-0.1,0.2-0.3,0.4-0.4,0.6c-0.2,0.2-0.3,0.4-0.4,0.6c-0.1,0.2-0.2,0.5-0.2,0.8c0,0.2,0,0.3,0,0.4
	c0,0.1,0.1,0.2,0.1,0.4c0.1,0.2,0.1,0.3,0.1,0.4c0,0.1,0.1,0.3,0.1,0.4c0.1,0.1,0.1,0.2,0.2,0.3l-0.1,0.2c-0.2-0.2-0.4-0.3-0.5-0.5
	c-0.1-0.1-0.3-0.3-0.4-0.4c-0.1-0.2-0.3-0.3-0.3-0.4c-0.2-0.3-0.4-0.6-0.6-0.9c-0.2-0.4-0.3-0.7-0.3-0.9c0-0.4,0.1-0.7,0.2-0.9
	c0.1-0.2,0.3-0.4,0.4-0.6c0.2-0.2,0.3-0.4,0.4-0.6C446.5,35.7,446.6,35.4,446.6,35.1z"/>
<path d="M446.5,84.6c0-0.2,0-0.3,0-0.4c0-0.1-0.1-0.2-0.1-0.4c-0.1-0.2-0.1-0.3-0.2-0.4c0-0.1-0.1-0.2-0.2-0.4l-0.2-0.3l0.1-0.2
	c0.2,0.2,0.4,0.3,0.6,0.5c0.2,0.1,0.3,0.3,0.4,0.4c0.1,0.1,0.3,0.3,0.3,0.4c0.2,0.3,0.5,0.6,0.7,1c0.2,0.3,0.3,0.6,0.3,0.9
	c0,0.4-0.1,0.7-0.2,0.9c-0.1,0.2-0.3,0.4-0.4,0.6c-0.2,0.2-0.3,0.4-0.4,0.6c-0.1,0.2-0.2,0.5-0.2,0.8c0,0.2,0,0.3,0,0.4
	c0,0.1,0.1,0.2,0.1,0.4c0.1,0.2,0.1,0.3,0.2,0.4c0,0.1,0.1,0.2,0.2,0.4c0.1,0.1,0.1,0.2,0.2,0.3l-0.1,0.2c-0.2-0.2-0.4-0.3-0.5-0.5
	c-0.2-0.1-0.3-0.3-0.4-0.4c-0.1-0.2-0.3-0.3-0.3-0.4c-0.2-0.3-0.5-0.6-0.7-0.9s-0.3-0.7-0.3-0.9c0-0.4,0.1-0.7,0.2-0.9
	c0.1-0.2,0.3-0.4,0.4-0.6c0.2-0.2,0.3-0.4,0.4-0.6C446.5,85.1,446.5,84.9,446.5,84.6z M446.5,90.2c0-0.2,0-0.3,0-0.4
	c0-0.1-0.1-0.2-0.1-0.4c-0.1-0.2-0.1-0.3-0.2-0.4c0-0.1-0.1-0.2-0.2-0.4l-0.2-0.3l0.1-0.2c0.2,0.2,0.4,0.3,0.6,0.5
	c0.2,0.1,0.3,0.3,0.4,0.4c0.1,0.1,0.3,0.3,0.3,0.4c0.2,0.3,0.5,0.6,0.7,1c0.2,0.3,0.3,0.6,0.3,0.9c0,0.4-0.1,0.7-0.2,0.9
	c-0.1,0.2-0.3,0.4-0.4,0.6c-0.2,0.2-0.3,0.4-0.4,0.6c-0.1,0.2-0.2,0.5-0.2,0.8c0,0.2,0,0.3,0,0.4c0,0.1,0.1,0.2,0.1,0.4
	c0.1,0.2,0.1,0.3,0.2,0.4c0,0.1,0.1,0.2,0.2,0.4c0.1,0.1,0.1,0.2,0.2,0.3l-0.1,0.2c-0.2-0.2-0.4-0.3-0.5-0.5
	c-0.2-0.1-0.3-0.3-0.4-0.4c-0.1-0.2-0.3-0.3-0.3-0.4c-0.2-0.3-0.5-0.6-0.7-0.9s-0.3-0.7-0.3-0.9c0-0.4,0.1-0.7,0.2-0.9
	c0.1-0.2,0.3-0.4,0.4-0.6c0.2-0.2,0.3-0.4,0.4-0.6C446.5,90.7,446.5,90.5,446.5,90.2z M446.5,95.8c0-0.2,0-0.3,0-0.4
	c0-0.1-0.1-0.2-0.1-0.4c-0.1-0.2-0.1-0.3-0.2-0.4c0-0.1-0.1-0.2-0.2-0.4l-0.2-0.3l0.1-0.2c0.2,0.2,0.4,0.3,0.6,0.5
	c0.2,0.1,0.3,0.3,0.4,0.4c0.1,0.1,0.3,0.3,0.3,0.4c0.2,0.3,0.5,0.6,0.7,1c0.2,0.3,0.3,0.6,0.3,0.9c0,0.4-0.1,0.7-0.2,0.9
	c-0.1,0.2-0.3,0.4-0.4,0.6c-0.2,0.2-0.3,0.4-0.4,0.6c-0.1,0.2-0.2,0.5-0.2,0.8c0,0.2,0,0.3,0,0.4c0,0.1,0.1,0.2,0.1,0.4
	c0.1,0.2,0.1,0.3,0.2,0.4c0,0.1,0.1,0.2,0.2,0.4c0.1,0.1,0.1,0.2,0.2,0.3l-0.1,0.2c-0.2-0.2-0.4-0.3-0.5-0.5
	c-0.2-0.1-0.3-0.3-0.4-0.4c-0.1-0.2-0.3-0.3-0.3-0.4c-0.2-0.3-0.5-0.6-0.7-0.9s-0.3-0.7-0.3-0.9c0-0.4,0.1-0.7,0.2-0.9
	c0.1-0.2,0.3-0.4,0.4-0.6c0.2-0.2,0.3-0.4,0.4-0.6C446.5,96.3,446.5,96.1,446.5,95.8z"/>
</svg>
